<svg xmlns="http://www.w3.org/2000/svg" viewBox="0 0 221.6 54.48"><defs><style>.cls-1{fill:#0d0e0e;}.cls-2{fill:red;}.cls-3{fill:#fff;}</style></defs><title>ch-logo</title><g id="Ebene_2" data-name="Ebene 2"><g id="Ebene_1-2" data-name="Ebene 1"><g id="Gruppe_30" data-name="Gruppe 30"><g id="Gruppe_28" data-name="Gruppe 28"><path id="Pfad_382" data-name="Pfad 382" class="cls-1" d="M42.49,9.29a3,3,0,0,0,1.64.43A1.49,1.49,0,0,0,45.8,8.44a1.93,1.93,0,0,0,0-.24c0-1.46-3.41-1.64-3.41-3.59a2.09,2.09,0,0,1,2.22-2l.13,0a4.51,4.51,0,0,1,1.46.24l-.11.67a3,3,0,0,0-1.36-.27c-.76,0-1.61.32-1.61,1.28,0,1.49,3.41,1.5,3.41,3.67a2.17,2.17,0,0,1-2.24,2.12l-.2,0A4.22,4.22,0,0,1,42.42,10Z"/><path id="Pfad_383" data-name="Pfad 383" class="cls-1" d="M52.32,5.52a3.13,3.13,0,0,0-1.16-.28,2,2,0,0,0-2.06,2,1.41,1.41,0,0,0,0,.29A2.06,2.06,0,0,0,51,9.78h.13a3.46,3.46,0,0,0,1.23-.25l.06.63a3.89,3.89,0,0,1-1.4.19,2.57,2.57,0,0,1-2.61-2.54c0-.1,0-.2,0-.3a2.64,2.64,0,0,1,2.42-2.84h.27a4.18,4.18,0,0,1,1.31.21Z"/><path id="Pfad_384" data-name="Pfad 384" class="cls-1" d="M54.35,2.24H55V5.71h0a1.85,1.85,0,0,1,1.7-1c1.46,0,1.85,1,1.85,2.31v3.25h-.67V7c0-.93-.18-1.74-1.29-1.74S55,6.38,55,7.32v2.91h-.67v-8Z"/><path id="Pfad_385" data-name="Pfad 385" class="cls-1" d="M66.69,10.23h-.81L64.4,5.53h0l-1.48,4.7h-.81L60.34,4.8h.73L62.5,9.5h0L64,4.8h.81l1.44,4.7h0l1.5-4.7h.67Z"/><path id="Pfad_386" data-name="Pfad 386" class="cls-1" d="M73.88,10.06a4.3,4.3,0,0,1-1.58.3c-1.8,0-2.47-1.21-2.47-2.84s.91-2.85,2.29-2.85,2.16,1.24,2.16,2.7v.34H70.56a1.85,1.85,0,0,0,1.58,2.07h.21a3.55,3.55,0,0,0,1.53-.4Zm-.33-2.93c0-1-.39-1.89-1.39-1.89a1.79,1.79,0,0,0-1.6,1.89Z"/><path id="Pfad_387" data-name="Pfad 387" class="cls-1" d="M77.06,3.35h-.67v-.9h.67ZM76.39,4.8h.67v5.43h-.67Z"/><path id="Pfad_388" data-name="Pfad 388" class="cls-1" d="M79.09,9.67l3.27-4.3H79.22V4.79h3.92v.58L79.87,9.66h3.27v.57h-4V9.67Z"/><path id="Pfad_389" data-name="Pfad 389" class="cls-1" d="M88.8,10.06a4.27,4.27,0,0,1-1.58.3c-1.8,0-2.47-1.21-2.47-2.84S85.67,4.67,87,4.67c1.54,0,2.16,1.24,2.16,2.7v.34H85.48a1.85,1.85,0,0,0,1.58,2.07h.21a3.52,3.52,0,0,0,1.53-.4Zm-.33-2.93c0-1-.39-1.89-1.39-1.89a1.79,1.79,0,0,0-1.6,1.89Z"/><path id="Pfad_390" data-name="Pfad 390" class="cls-1" d="M91.32,6a9.79,9.79,0,0,0,0-1.21H92v1h0a1.6,1.6,0,0,1,1.4-1.17,1.89,1.89,0,0,1,.47.06v.7a2.05,2.05,0,0,0-.49-.06C92.28,5.37,92,6.56,92,7.54v2.69h-.67V6Z"/><path id="Pfad_391" data-name="Pfad 391" class="cls-1" d="M96.37,3.35H95.7v-.9h.67ZM95.7,4.8h.67v5.43H95.7Z"/><path id="Pfad_392" data-name="Pfad 392" class="cls-1" d="M98.48,9.45a3.3,3.3,0,0,0,1.42.34c.64,0,1.2-.36,1.2-1,0-1.29-2.62-1.09-2.62-2.67,0-1.08.88-1.48,1.77-1.48a4.14,4.14,0,0,1,1.35.25l-.07.58a3.07,3.07,0,0,0-1.2-.25c-.69,0-1.17.21-1.17.9,0,1,2.68.89,2.68,2.67,0,1.15-1.08,1.54-1.9,1.54a4.2,4.2,0,0,1-1.53-.25Z"/><path id="Pfad_393" data-name="Pfad 393" class="cls-1" d="M107.41,5.52a3.09,3.09,0,0,0-1.16-.28,2,2,0,0,0-2.06,2,2.81,2.81,0,0,0,0,.29A2.07,2.07,0,0,0,106,9.78h.13a3.46,3.46,0,0,0,1.23-.25l.06.63a3.89,3.89,0,0,1-1.4.19,2.57,2.57,0,0,1-2.61-2.54c0-.1,0-.2,0-.3a2.64,2.64,0,0,1,2.42-2.84h.27a4.13,4.13,0,0,1,1.31.21Z"/><path id="Pfad_394" data-name="Pfad 394" class="cls-1" d="M109.44,2.24h.67V5.71h0a1.84,1.84,0,0,1,1.69-1c1.46,0,1.86,1,1.86,2.31v3.25H113V7c0-.93-.18-1.74-1.29-1.74s-1.61,1.13-1.61,2.07v2.91h-.67v-8Z"/><path id="Pfad_395" data-name="Pfad 395" class="cls-1" d="M119.84,10.06a4.27,4.27,0,0,1-1.58.3c-1.8,0-2.47-1.21-2.47-2.84s.92-2.85,2.29-2.85c1.54,0,2.17,1.24,2.17,2.7v.34h-3.73a1.85,1.85,0,0,0,1.58,2.07h.22a3.51,3.51,0,0,0,1.52-.4Zm-.33-2.93c0-1-.38-1.89-1.39-1.89a1.79,1.79,0,0,0-1.6,1.89Z"/><path id="Pfad_396" data-name="Pfad 396" class="cls-1" d="M125.91,2.79h3.64v.64h-2.91V6.09h2.76v.64h-2.76V9.6h3v.64h-3.77Z"/><path id="Pfad_397" data-name="Pfad 397" class="cls-1" d="M132.66,3.35H132v-.9h.67ZM132,4.8h.67v5.43H132Z"/><path id="Pfad_398" data-name="Pfad 398" class="cls-1" d="M139.5,10.23h-.68V9.37h0a1.73,1.73,0,0,1-1.7,1c-1.49,0-2.23-1.23-2.23-2.84s.64-2.85,2.23-2.85a1.82,1.82,0,0,1,1.7,1h0V2.24h.68Zm-2.28-.44c1.19,0,1.6-1.28,1.6-2.27s-.41-2.27-1.6-2.27-1.61,1.21-1.61,2.27.33,2.27,1.61,2.27Z"/><path id="Pfad_399" data-name="Pfad 399" class="cls-1" d="M146.25,9.79c0,1.51-.68,2.75-2.54,2.75a5.78,5.78,0,0,1-1.65-.29l.06-.67a3.55,3.55,0,0,0,1.6.38c1.72,0,1.87-1.26,1.87-2.79h0a1.7,1.7,0,0,1-1.65,1.07c-1.74,0-2.29-1.52-2.29-2.72,0-1.65.64-2.85,2.24-2.85a1.81,1.81,0,0,1,1.7.75h0V4.8h.67v5Zm-2.32-.13c1.22,0,1.65-1.15,1.65-2.14,0-1.32-.38-2.27-1.61-2.27s-1.61,1.21-1.61,2.27.43,2.14,1.57,2.14Z"/><path id="Pfad_400" data-name="Pfad 400" class="cls-1" d="M152.35,10.06a4.27,4.27,0,0,1-1.58.3c-1.8,0-2.47-1.21-2.47-2.84s.92-2.85,2.29-2.85c1.54,0,2.17,1.24,2.17,2.7v.34H149a1.84,1.84,0,0,0,1.58,2.07h.21a3.51,3.51,0,0,0,1.52-.4ZM152,7.13c0-1-.38-1.89-1.38-1.89A1.77,1.77,0,0,0,149,7.13Z"/><path id="Pfad_401" data-name="Pfad 401" class="cls-1" d="M154.87,6.08c0-.42,0-.85,0-1.28h.65v1h0a1.71,1.71,0,0,1,1.76-1.1c1.34,0,1.85.9,1.85,2.09v3.47h-.67V6.93c0-1-.36-1.68-1.29-1.68-1.23,0-1.61,1.07-1.61,2v3h-.67V6.08Z"/><path id="Pfad_402" data-name="Pfad 402" class="cls-1" d="M163.75,4.67c1.76,0,2.53,1.36,2.53,2.85s-.77,2.84-2.53,2.84a2.54,2.54,0,0,1-2.54-2.84C161.21,6,162,4.67,163.75,4.67Zm0,5.12c1.17,0,1.8-1,1.8-2.27s-.63-2.27-1.8-2.27-1.8,1-1.8,2.27.62,2.27,1.8,2.27Z"/><path id="Pfad_403" data-name="Pfad 403" class="cls-1" d="M168,9.45a3.3,3.3,0,0,0,1.42.34c.64,0,1.2-.36,1.2-1,0-1.29-2.62-1.09-2.62-2.67,0-1.08.88-1.48,1.77-1.48a4.14,4.14,0,0,1,1.35.25L171,5.5a3.07,3.07,0,0,0-1.2-.25c-.69,0-1.17.21-1.17.9,0,1,2.68.89,2.68,2.67,0,1.15-1.08,1.54-1.9,1.54a4.2,4.2,0,0,1-1.53-.25Z"/><path id="Pfad_404" data-name="Pfad 404" class="cls-1" d="M173,9.45a3.29,3.29,0,0,0,1.41.34c.64,0,1.2-.36,1.2-1,0-1.29-2.61-1.09-2.61-2.67,0-1.08.88-1.48,1.77-1.48a4.19,4.19,0,0,1,1.35.25L176,5.5a3.11,3.11,0,0,0-1.2-.25c-.69,0-1.17.21-1.17.9,0,1,2.67.89,2.67,2.67,0,1.15-1.07,1.54-1.9,1.54a4.15,4.15,0,0,1-1.52-.25Z"/><path id="Pfad_405" data-name="Pfad 405" class="cls-1" d="M182,10.06a4.3,4.3,0,0,1-1.58.3c-1.8,0-2.47-1.21-2.47-2.84s.91-2.85,2.29-2.85c1.53,0,2.16,1.24,2.16,2.7v.34h-3.72a1.85,1.85,0,0,0,1.58,2.07h.21a3.55,3.55,0,0,0,1.53-.4Zm-.33-2.93c0-1-.39-1.89-1.39-1.89a1.79,1.79,0,0,0-1.6,1.89Z"/><path id="Pfad_406" data-name="Pfad 406" class="cls-1" d="M184.5,6.08c0-.42,0-.85,0-1.28h.65v1h0a1.72,1.72,0,0,1,1.76-1.1c1.34,0,1.85.9,1.85,2.09v3.47h-.67V6.93c0-1-.36-1.68-1.29-1.68-1.22,0-1.61,1.07-1.61,2v3h-.67V6.08Z"/><path id="Pfad_407" data-name="Pfad 407" class="cls-1" d="M190.84,9.45a3.33,3.33,0,0,0,1.42.34c.64,0,1.2-.36,1.2-1,0-1.29-2.61-1.09-2.61-2.67,0-1.08.87-1.48,1.77-1.48a4.08,4.08,0,0,1,1.34.25l-.06.58a3.11,3.11,0,0,0-1.2-.25c-.69,0-1.17.21-1.17.9,0,1,2.67.89,2.67,2.67,0,1.15-1.08,1.54-1.9,1.54a4.15,4.15,0,0,1-1.52-.25Z"/><path id="Pfad_408" data-name="Pfad 408" class="cls-1" d="M199.78,5.52a3.13,3.13,0,0,0-1.16-.28,2,2,0,0,0-2.07,2,2.83,2.83,0,0,0,0,.29,2.06,2.06,0,0,0,1.84,2.26h.13a3.46,3.46,0,0,0,1.23-.25l.06.63a3.89,3.89,0,0,1-1.4.19,2.57,2.57,0,0,1-2.61-2.54c0-.1,0-.2,0-.3a2.63,2.63,0,0,1,2.42-2.84h.27a4.18,4.18,0,0,1,1.31.21Z"/><path id="Pfad_409" data-name="Pfad 409" class="cls-1" d="M201.8,2.24h.67V5.71h0a1.84,1.84,0,0,1,1.69-1c1.46,0,1.86,1,1.86,2.31v3.25h-.68V7c0-.93-.18-1.74-1.29-1.74s-1.61,1.13-1.61,2.07v2.91h-.67v-8Z"/><path id="Pfad_410" data-name="Pfad 410" class="cls-1" d="M211.68,9.36h0a1.9,1.9,0,0,1-1.72,1c-1.55,0-1.8-1-1.8-1.54,0-1.82,2-1.9,3.35-1.9h.13V6.64c0-.93-.33-1.4-1.24-1.4a2.85,2.85,0,0,0-1.6.45V5a4.26,4.26,0,0,1,1.6-.38c1.35,0,1.91.61,1.91,2v2.4a7.26,7.26,0,0,0,.06,1.14h-.67V9.35Zm-.06-1.87h-.19c-1.16,0-2.55.12-2.55,1.32,0,.71.51,1,1.13,1,1.58,0,1.61-1.38,1.61-2Z"/><path id="Pfad_411" data-name="Pfad 411" class="cls-1" d="M215.18,5.37h-1.1V4.8h1.1V4.4c0-1.14,0-2.29,1.44-2.29a1.5,1.5,0,0,1,.63.11l0,.59a1.25,1.25,0,0,0-.54-.12c-.91,0-.82,1-.82,1.64V4.8h1.23v.57h-1.23v4.87h-.67V5.37Z"/><path id="Pfad_412" data-name="Pfad 412" class="cls-1" d="M221.45,5.37h-1.24V8.89c0,.49.18.9.73.9a1.42,1.42,0,0,0,.61-.13l0,.56a2.89,2.89,0,0,1-.82.15c-1.2,0-1.24-.82-1.24-1.82V5.38h-1.06V4.8h1.06V3.49l.67-.23V4.8h1.24v.58Z"/><path id="Pfad_413" data-name="Pfad 413" class="cls-1" d="M47.72,18.33A3.78,3.78,0,0,0,46.06,18a2.92,2.92,0,0,0-3,2.81,2.64,2.64,0,0,0,0,.4,2.89,2.89,0,0,0,2.55,3.19,3.7,3.7,0,0,0,.47,0,3.78,3.78,0,0,0,1.66-.32l0,.64a4,4,0,0,1-1.71.32,3.54,3.54,0,0,1-3.75-3.32,4.68,4.68,0,0,1,0-.53,3.59,3.59,0,0,1,3.32-3.84,2.06,2.06,0,0,1,.43,0,4.72,4.72,0,0,1,1.71.28Z"/><path id="Pfad_414" data-name="Pfad 414" class="cls-1" d="M52.33,19.37c1.76,0,2.54,1.37,2.54,2.85s-.78,2.85-2.54,2.85-2.54-1.37-2.54-2.85S50.57,19.37,52.33,19.37Zm0,5.12c1.17,0,1.8-1,1.8-2.27S53.5,20,52.33,20s-1.8,1-1.8,2.27.63,2.27,1.8,2.27Z"/><path id="Pfad_415" data-name="Pfad 415" class="cls-1" d="M57,20.78c0-.42,0-.84,0-1.28h.65v1h0a1.71,1.71,0,0,1,1.76-1.1c1.34,0,1.85.9,1.85,2.09v3.47h-.67v-3.3c0-1-.36-1.68-1.29-1.68-1.23,0-1.61,1.08-1.61,2v3H57Z"/><path id="Pfad_416" data-name="Pfad 416" class="cls-1" d="M64.19,20.08h-1.1V19.5h1.1v-.39c0-1.14,0-2.3,1.43-2.3a1.67,1.67,0,0,1,.63.11l0,.59a1.21,1.21,0,0,0-.53-.12c-.92,0-.82,1-.82,1.64v.47h1.22v.58H64.86v4.86h-.67V20.08Z"/><path id="Pfad_417" data-name="Pfad 417" class="cls-1" d="M71.75,24.77a4.66,4.66,0,0,1-1.57.3c-1.8,0-2.48-1.22-2.48-2.85s.92-2.84,2.3-2.84c1.53,0,2.16,1.23,2.16,2.7v.34H68.44A1.84,1.84,0,0,0,70,24.48h.21a3.38,3.38,0,0,0,1.52-.4Zm-.33-2.93C71.42,20.89,71,20,70,20a1.77,1.77,0,0,0-1.6,1.89ZM70.3,17.4h.85L69.8,18.94h-.49Z"/><path id="Pfad_418" data-name="Pfad 418" class="cls-1" d="M78.58,24.94H77.9v-.87h0a1.73,1.73,0,0,1-1.69,1c-1.49,0-2.24-1.23-2.24-2.84s.64-2.85,2.24-2.85a1.84,1.84,0,0,1,1.69,1.05h0V16.94h.68Zm-2.29-.45c1.2,0,1.61-1.28,1.61-2.27S77.49,20,76.29,20s-1.61,1.21-1.61,2.27S75,24.49,76.29,24.49Z"/><path id="Pfad_419" data-name="Pfad 419" class="cls-1" d="M84.67,24.77a4.66,4.66,0,0,1-1.57.3c-1.8,0-2.48-1.22-2.48-2.85s.92-2.84,2.29-2.84c1.54,0,2.17,1.23,2.17,2.7v.34H81.36a1.83,1.83,0,0,0,1.58,2.06h.21a3.38,3.38,0,0,0,1.52-.4Zm-.33-2.93C84.34,20.89,84,20,83,20a1.77,1.77,0,0,0-1.6,1.89ZM83.22,17.4h.85l-1.35,1.54h-.49Z"/><path id="Pfad_420" data-name="Pfad 420" class="cls-1" d="M87.19,20.72a9.88,9.88,0,0,0,0-1.22h.67v1.05h0a1.63,1.63,0,0,1,1.4-1.18,2.42,2.42,0,0,1,.47.07v.7a1.66,1.66,0,0,0-.49-.07c-1.07,0-1.36,1.2-1.36,2.18v2.69h-.67V20.71Z"/><path id="Pfad_421" data-name="Pfad 421" class="cls-1" d="M94.69,24.06h0a1.91,1.91,0,0,1-1.73,1c-1.54,0-1.79-1-1.79-1.53,0-1.82,1.94-1.91,3.35-1.91h.13v-.28c0-.92-.33-1.4-1.24-1.4a2.94,2.94,0,0,0-1.6.45v-.65a4.45,4.45,0,0,1,1.6-.37c1.35,0,1.91.61,1.91,2v2.4a8.55,8.55,0,0,0,0,1.14h-.66v-.87Zm-.06-1.86h-.19c-1.16,0-2.55.12-2.55,1.31,0,.71.51,1,1.13,1,1.58,0,1.61-1.37,1.61-2Z"/><path id="Pfad_422" data-name="Pfad 422" class="cls-1" d="M100.08,20.08H98.84v3.51c0,.49.18.9.73.9a1.58,1.58,0,0,0,.61-.12l0,.55a2.33,2.33,0,0,1-.82.15c-1.2,0-1.24-.82-1.24-1.81V20.08H97.1V19.5h1.07V18.19l.67-.23V19.5h1.24v.58Z"/><path id="Pfad_423" data-name="Pfad 423" class="cls-1" d="M102.78,18.05h-.67v-.9h.67Zm-.67,1.45h.67v5.44h-.67Z"/><path id="Pfad_424" data-name="Pfad 424" class="cls-1" d="M107.43,19.37c1.76,0,2.54,1.37,2.54,2.85s-.78,2.85-2.54,2.85-2.54-1.37-2.54-2.85S105.67,19.37,107.43,19.37Zm0,5.12c1.17,0,1.8-1,1.8-2.27S108.6,20,107.43,20s-1.8,1-1.8,2.27.63,2.27,1.8,2.27Z"/><path id="Pfad_425" data-name="Pfad 425" class="cls-1" d="M112.07,20.78c0-.42,0-.84,0-1.28h.65v1h0a1.71,1.71,0,0,1,1.76-1.1c1.34,0,1.85.9,1.85,2.09v3.47h-.67v-3.3c0-1-.36-1.68-1.29-1.68-1.23,0-1.61,1.08-1.61,2v3h-.67V20.78Z"/><path id="Pfad_426" data-name="Pfad 426" class="cls-1" d="M122.1,24.15a3.19,3.19,0,0,0,1.42.34c.64,0,1.2-.35,1.2-1,0-1.29-2.61-1.09-2.61-2.67,0-1.07.87-1.48,1.77-1.48a4.13,4.13,0,0,1,1.34.25l-.07.58A3.22,3.22,0,0,0,124,20c-.69,0-1.17.21-1.17.9,0,1,2.68.89,2.68,2.67,0,1.15-1.08,1.55-1.9,1.55a4.21,4.21,0,0,1-1.53-.26Z"/><path id="Pfad_427" data-name="Pfad 427" class="cls-1" d="M131.74,23.66c0,.41,0,.84,0,1.28h-.65V24h0a1.74,1.74,0,0,1-1.76,1.1c-1.35,0-1.86-.9-1.86-2.09V19.5h.67v3.3c0,1,.37,1.69,1.29,1.69,1.23,0,1.61-1.08,1.61-2v-3h.67v4.16Z"/><path id="Pfad_428" data-name="Pfad 428" class="cls-1" d="M134.92,18.05h-.67v-.9h.67Zm-.67,1.45h.67v5.44h-.67Z"/><path id="Pfad_429" data-name="Pfad 429" class="cls-1" d="M137,24.15a3.19,3.19,0,0,0,1.42.34c.64,0,1.2-.35,1.2-1,0-1.29-2.61-1.09-2.61-2.67,0-1.07.87-1.48,1.77-1.48a4.08,4.08,0,0,1,1.34.25l-.06.58a3.3,3.3,0,0,0-1.2-.25c-.69,0-1.17.21-1.17.9,0,1,2.67.89,2.67,2.67,0,1.15-1.08,1.55-1.9,1.55a4.12,4.12,0,0,1-1.52-.26Z"/><path id="Pfad_430" data-name="Pfad 430" class="cls-1" d="M142,24.15a3.19,3.19,0,0,0,1.42.34c.64,0,1.2-.35,1.2-1,0-1.29-2.61-1.09-2.61-2.67,0-1.07.87-1.48,1.77-1.48a4.08,4.08,0,0,1,1.34.25l-.06.58a3.3,3.3,0,0,0-1.2-.25c-.7,0-1.18.21-1.18.9,0,1,2.68.89,2.68,2.67,0,1.15-1.08,1.55-1.9,1.55a4.21,4.21,0,0,1-1.53-.26Z"/><path id="Pfad_431" data-name="Pfad 431" class="cls-1" d="M151.05,24.77a4.71,4.71,0,0,1-1.58.3c-1.8,0-2.47-1.22-2.47-2.85s.92-2.84,2.29-2.84c1.54,0,2.17,1.23,2.17,2.7v.34h-3.73a1.84,1.84,0,0,0,1.58,2.06h.22a3.38,3.38,0,0,0,1.52-.4Zm-.33-2.93c0-.95-.38-1.89-1.38-1.89a1.77,1.77,0,0,0-1.6,1.89Z"/><path id="Pfad_432" data-name="Pfad 432" class="cls-1" d="M47.72,33a3.78,3.78,0,0,0-1.66-.32,2.92,2.92,0,0,0-3,2.82,2.54,2.54,0,0,0,0,.39,2.88,2.88,0,0,0,2.55,3.19,2.47,2.47,0,0,0,.47,0,3.78,3.78,0,0,0,1.66-.32l0,.64a4,4,0,0,1-1.71.32,3.54,3.54,0,0,1-3.75-3.32,4.69,4.69,0,0,1,0-.53,3.59,3.59,0,0,1,3.32-3.84h.43a5,5,0,0,1,1.71.28Z"/><path id="Pfad_433" data-name="Pfad 433" class="cls-1" d="M52.33,34.08a2.54,2.54,0,0,1,2.54,2.84c0,1.48-.78,2.85-2.54,2.85s-2.54-1.37-2.54-2.85A2.54,2.54,0,0,1,52.33,34.08Zm0,5.11c1.17,0,1.8-1,1.8-2.27s-.63-2.27-1.8-2.27-1.8,1-1.8,2.27.63,2.27,1.8,2.27Z"/><path id="Pfad_434" data-name="Pfad 434" class="cls-1" d="M57,35.48c0-.41,0-.84,0-1.28h.65v1h0a1.74,1.74,0,0,1,1.76-1.1c1.34,0,1.85.9,1.85,2.09v3.48h-.67V36.33c0-1-.36-1.68-1.29-1.68-1.23,0-1.61,1.08-1.61,2v3H57Z"/><path id="Pfad_435" data-name="Pfad 435" class="cls-1" d="M64.19,34.78h-1.1V34.2h1.1v-.39c0-1.14,0-2.29,1.43-2.29a1.67,1.67,0,0,1,.63.1l0,.59a1.21,1.21,0,0,0-.53-.12c-.92,0-.82,1-.82,1.64v.47h1.22v.58H64.86v4.86h-.67V34.78Z"/><path id="Pfad_436" data-name="Pfad 436" class="cls-1" d="M71.75,39.47a4.21,4.21,0,0,1-1.57.3c-1.8,0-2.48-1.21-2.48-2.84s.92-2.85,2.3-2.85c1.53,0,2.16,1.24,2.16,2.7v.34H68.44A1.83,1.83,0,0,0,70,39.18l.21,0a3.52,3.52,0,0,0,1.52-.41Zm-.33-2.93c0-.95-.38-1.89-1.38-1.89a1.77,1.77,0,0,0-1.6,1.89Z"/><path id="Pfad_437" data-name="Pfad 437" class="cls-1" d="M78.58,39.64H77.9v-.86h0a1.73,1.73,0,0,1-1.69,1c-1.49,0-2.24-1.24-2.24-2.85s.64-2.84,2.24-2.84a1.82,1.82,0,0,1,1.69,1h0V31.65h.68Zm-2.29-.45c1.2,0,1.61-1.28,1.61-2.27s-.41-2.27-1.61-2.27-1.61,1.22-1.61,2.27S75,39.19,76.29,39.19Z"/><path id="Pfad_438" data-name="Pfad 438" class="cls-1" d="M84.67,39.47a4.21,4.21,0,0,1-1.57.3c-1.8,0-2.48-1.21-2.48-2.84s.92-2.85,2.29-2.85c1.54,0,2.17,1.24,2.17,2.7v.34H81.36a1.82,1.82,0,0,0,1.58,2.06l.21,0a3.52,3.52,0,0,0,1.52-.41Zm-.33-2.93c0-.95-.38-1.89-1.38-1.89a1.77,1.77,0,0,0-1.6,1.89Z"/><path id="Pfad_439" data-name="Pfad 439" class="cls-1" d="M87.19,35.42a10,10,0,0,0,0-1.22h.67v1h0a1.62,1.62,0,0,1,1.4-1.17,1.84,1.84,0,0,1,.47.06v.7a2.05,2.05,0,0,0-.49-.06c-1.07,0-1.36,1.19-1.36,2.17v2.69h-.67V35.42Z"/><path id="Pfad_440" data-name="Pfad 440" class="cls-1" d="M94.69,38.77h0a1.91,1.91,0,0,1-1.73,1c-1.54,0-1.79-1.05-1.79-1.54,0-1.82,1.94-1.9,3.35-1.9h.13v-.28c0-.93-.33-1.4-1.24-1.4a2.85,2.85,0,0,0-1.6.45v-.65a4.26,4.26,0,0,1,1.6-.38c1.35,0,1.91.61,1.91,2v2.4a8.7,8.7,0,0,0,0,1.14h-.66v-.88Zm-.06-1.87h-.19c-1.16,0-2.55.12-2.55,1.31,0,.72.51,1,1.13,1,1.58,0,1.61-1.37,1.61-2Z"/><path id="Pfad_441" data-name="Pfad 441" class="cls-1" d="M97.23,39.08l3.27-4.3H97.36V34.2h3.92v.58L98,39.06h3.27v.58h-4v-.57Z"/><path id="Pfad_442" data-name="Pfad 442" class="cls-1" d="M104,32.76h-.67v-.9H104Zm-.67,1.45H104v5.44h-.67Z"/><path id="Pfad_443" data-name="Pfad 443" class="cls-1" d="M108.62,34.08a2.54,2.54,0,0,1,2.54,2.84c0,1.48-.78,2.85-2.54,2.85s-2.54-1.37-2.54-2.85A2.54,2.54,0,0,1,108.62,34.08Zm0,5.11c1.17,0,1.8-1,1.8-2.27s-.63-2.27-1.8-2.27-1.8,1-1.8,2.27.62,2.27,1.8,2.27Z"/><path id="Pfad_444" data-name="Pfad 444" class="cls-1" d="M113.25,35.48c0-.41,0-.84,0-1.28h.65v1h0a1.74,1.74,0,0,1,1.76-1.1c1.34,0,1.85.9,1.85,2.09v3.48h-.67V36.33c0-1-.36-1.68-1.29-1.68-1.23,0-1.61,1.08-1.61,2v3h-.67V35.48Z"/><path id="Pfad_445" data-name="Pfad 445" class="cls-1" d="M123.66,39.47a4.3,4.3,0,0,1-1.58.3c-1.8,0-2.47-1.21-2.47-2.84s.91-2.85,2.29-2.85,2.16,1.24,2.16,2.7v.34h-3.72a1.83,1.83,0,0,0,1.58,2.06l.21,0a3.56,3.56,0,0,0,1.53-.41Zm-.33-2.93c0-.95-.39-1.89-1.39-1.89a1.79,1.79,0,0,0-1.6,1.89Z"/><path id="Pfad_446" data-name="Pfad 446" class="cls-1" d="M129.73,38.69a2.87,2.87,0,0,0,1.64.44A1.49,1.49,0,0,0,133,37.85a1.93,1.93,0,0,0,0-.24c0-1.47-3.41-1.65-3.41-3.6a2.09,2.09,0,0,1,2.22-1.95H132a4.52,4.52,0,0,1,1.46.25l-.12.67a3,3,0,0,0-1.35-.28c-.77,0-1.61.32-1.61,1.28,0,1.5,3.41,1.5,3.41,3.68a2.17,2.17,0,0,1-2.24,2.11h-.2a4.19,4.19,0,0,1-1.68-.32Z"/><path id="Pfad_447" data-name="Pfad 447" class="cls-1" d="M137.91,39.64h-.79l-1.85-5.44H136l1.5,4.7h0l1.58-4.7h.7Z"/><path id="Pfad_448" data-name="Pfad 448" class="cls-1" d="M142.26,32.76h-.67v-.9h.67Zm-.67,1.45h.67v5.44h-.67Z"/><path id="Pfad_449" data-name="Pfad 449" class="cls-1" d="M144.28,39.08l3.28-4.3h-3.15V34.2h3.92v.58l-3.27,4.28h3.27v.58h-4.05v-.57Z"/><path id="Pfad_450" data-name="Pfad 450" class="cls-1" d="M149.85,39.08l3.27-4.3H150V34.2h3.93v.58l-3.27,4.28h3.27v.58h-4.05v-.57Z"/><path id="Pfad_451" data-name="Pfad 451" class="cls-1" d="M159.56,39.47a4.3,4.3,0,0,1-1.58.3c-1.8,0-2.47-1.21-2.47-2.84s.91-2.85,2.29-2.85,2.16,1.24,2.16,2.7v.34h-3.72a1.83,1.83,0,0,0,1.58,2.06l.21,0a3.53,3.53,0,0,0,1.53-.41Zm-.33-2.93c0-.95-.39-1.89-1.39-1.89a1.79,1.79,0,0,0-1.6,1.89Z"/><path id="Pfad_452" data-name="Pfad 452" class="cls-1" d="M162.07,35.42a10,10,0,0,0,0-1.22h.67v1h0a1.62,1.62,0,0,1,1.4-1.17,1.84,1.84,0,0,1,.47.06v.7a2,2,0,0,0-.49-.06c-1.06,0-1.35,1.19-1.35,2.17v2.69h-.67V35.42Z"/><path id="Pfad_453" data-name="Pfad 453" class="cls-1" d="M169.58,38.77h0a1.92,1.92,0,0,1-1.73,1c-1.55,0-1.79-1.05-1.79-1.54,0-1.82,1.94-1.9,3.35-1.9h.12v-.28c0-.93-.33-1.4-1.23-1.4a2.83,2.83,0,0,0-1.6.45v-.65a4.17,4.17,0,0,1,1.6-.38c1.34,0,1.9.61,1.9,2v2.4a7.26,7.26,0,0,0,.06,1.14h-.66v-.88Zm-.07-1.87h-.19c-1.16,0-2.55.12-2.55,1.31,0,.72.51,1,1.13,1,1.58,0,1.61-1.37,1.61-2Z"/><path id="Pfad_454" data-name="Pfad 454" class="cls-1" d="M47.72,47.73a3.92,3.92,0,0,0-1.66-.31,2.92,2.92,0,0,0-3,2.81,2.54,2.54,0,0,0,0,.39,2.89,2.89,0,0,0,2.55,3.2,3.69,3.69,0,0,0,.47,0,3.52,3.52,0,0,0,1.66-.32l0,.64a4,4,0,0,1-1.71.32,3.54,3.54,0,0,1-3.75-3.32,4.68,4.68,0,0,1,0-.53,3.6,3.6,0,0,1,3.32-3.84h.43a4.72,4.72,0,0,1,1.71.27Z"/><path id="Pfad_455" data-name="Pfad 455" class="cls-1" d="M52.33,48.78c1.76,0,2.54,1.36,2.54,2.85a2.56,2.56,0,1,1-5.08,0C49.79,50.14,50.57,48.78,52.33,48.78Zm0,5.12c1.17,0,1.8-1,1.8-2.27s-.63-2.27-1.8-2.27-1.8,1-1.8,2.27.63,2.27,1.8,2.27Z"/><path id="Pfad_456" data-name="Pfad 456" class="cls-1" d="M57,50.19c0-.42,0-.85,0-1.28h.65v1h0a1.71,1.71,0,0,1,1.76-1.1c1.34,0,1.85.9,1.85,2.09v3.47h-.67V51c0-1-.36-1.68-1.29-1.68-1.23,0-1.61,1.07-1.61,2v3H57Z"/><path id="Pfad_457" data-name="Pfad 457" class="cls-1" d="M64.19,49.48h-1.1v-.57h1.1v-.4c0-1.14,0-2.29,1.43-2.29a1.5,1.5,0,0,1,.63.11l0,.58a1.08,1.08,0,0,0-.53-.11c-.92,0-.82,1-.82,1.64v.47h1.22v.57H64.86v4.86h-.67V49.48Z"/><path id="Pfad_458" data-name="Pfad 458" class="cls-1" d="M71.75,54.17a4.21,4.21,0,0,1-1.57.3c-1.8,0-2.48-1.21-2.48-2.84s.92-2.85,2.3-2.85c1.53,0,2.16,1.24,2.16,2.7v.34H68.44A1.85,1.85,0,0,0,70,53.89h.21a3.51,3.51,0,0,0,1.52-.4Zm-.33-2.93c0-1-.38-1.89-1.38-1.89a1.77,1.77,0,0,0-1.6,1.89Z"/><path id="Pfad_459" data-name="Pfad 459" class="cls-1" d="M78.58,54.34H77.9v-.86h0a1.73,1.73,0,0,1-1.69,1c-1.49,0-2.24-1.23-2.24-2.84s.64-2.85,2.24-2.85a1.81,1.81,0,0,1,1.69,1h0V46.35h.68Zm-2.29-.44c1.2,0,1.61-1.28,1.61-2.27s-.41-2.27-1.61-2.27-1.61,1.21-1.61,2.27S75,53.9,76.29,53.9Z"/><path id="Pfad_460" data-name="Pfad 460" class="cls-1" d="M84.67,54.17a4.21,4.21,0,0,1-1.57.3c-1.8,0-2.48-1.21-2.48-2.84s.92-2.85,2.29-2.85c1.54,0,2.17,1.24,2.17,2.7v.34H81.36a1.84,1.84,0,0,0,1.58,2.07h.21a3.51,3.51,0,0,0,1.52-.4Zm-.33-2.93c0-1-.38-1.89-1.38-1.89a1.77,1.77,0,0,0-1.6,1.89Z"/><path id="Pfad_461" data-name="Pfad 461" class="cls-1" d="M87.19,50.12a9.79,9.79,0,0,0,0-1.21h.67v1h0a1.62,1.62,0,0,1,1.4-1.17,2.42,2.42,0,0,1,.47.06v.7a2.05,2.05,0,0,0-.49-.06c-1.07,0-1.36,1.19-1.36,2.18v2.68h-.67V50.12Z"/><path id="Pfad_462" data-name="Pfad 462" class="cls-1" d="M94.69,53.47h0a1.91,1.91,0,0,1-1.73,1c-1.54,0-1.79-1-1.79-1.54,0-1.82,1.94-1.9,3.35-1.9h.13v-.28c0-.93-.33-1.4-1.24-1.4a2.85,2.85,0,0,0-1.6.45v-.65a4.26,4.26,0,0,1,1.6-.38c1.35,0,1.91.61,1.91,2v2.4a8.7,8.7,0,0,0,0,1.14h-.66v-.88Zm-.06-1.87h-.19c-1.16,0-2.55.12-2.55,1.32,0,.71.51,1,1.13,1,1.58,0,1.61-1.38,1.61-2Z"/><path id="Pfad_463" data-name="Pfad 463" class="cls-1" d="M97.23,53.78l3.27-4.3H97.36V48.9h3.92v.58L98,53.76h3.27v.58h-4v-.56Z"/><path id="Pfad_464" data-name="Pfad 464" class="cls-1" d="M104,47.46h-.67v-.9H104Zm-.67,1.45H104v5.44h-.67Z"/><path id="Pfad_465" data-name="Pfad 465" class="cls-1" d="M110.74,53.06c0,.42,0,.85,0,1.28h-.65v-1h0a1.73,1.73,0,0,1-1.76,1.1c-1.35,0-1.86-.9-1.86-2.08V48.91h.67v3.3c0,1,.37,1.69,1.29,1.69,1.23,0,1.61-1.08,1.61-2v-3h.67v4.15Z"/><path id="Pfad_466" data-name="Pfad 466" class="cls-1" d="M113.25,50.19c0-.42,0-.85,0-1.28h.65v1h0a1.72,1.72,0,0,1,1.76-1.1c1.34,0,1.85.9,1.85,2.09v3.47h-.67V51c0-1-.36-1.68-1.29-1.68-1.23,0-1.61,1.07-1.61,2v3h-.67V50.19Z"/><path id="Pfad_467" data-name="Pfad 467" class="cls-1" d="M123.28,53.56a3.19,3.19,0,0,0,1.42.34c.64,0,1.2-.35,1.2-1,0-1.29-2.61-1.09-2.61-2.67,0-1.07.87-1.48,1.77-1.48a4.35,4.35,0,0,1,1.34.25l-.06.58a3.11,3.11,0,0,0-1.2-.25c-.7,0-1.18.21-1.18.9,0,1,2.68.89,2.68,2.67,0,1.15-1.08,1.54-1.9,1.54a3.92,3.92,0,0,1-1.52-.25Z"/><path id="Pfad_468" data-name="Pfad 468" class="cls-1" d="M130.56,54.34h-.79l-1.84-5.43h.74l1.5,4.7h0l1.57-4.7h.7Z"/><path id="Pfad_469" data-name="Pfad 469" class="cls-1" d="M134.91,47.46h-.67v-.9h.67Zm-.67,1.45h.67v5.44h-.67Z"/><path id="Pfad_470" data-name="Pfad 470" class="cls-1" d="M136.94,53.78l3.27-4.3h-3.14V48.9H141v.58l-3.27,4.28H141v.58h-4.05v-.56Z"/><path id="Pfad_471" data-name="Pfad 471" class="cls-1" d="M143,50.12a9.79,9.79,0,0,0,0-1.21h.67v1h0a1.62,1.62,0,0,1,1.4-1.17,2.42,2.42,0,0,1,.47.06v.7a2,2,0,0,0-.49-.06c-1.06,0-1.35,1.19-1.35,2.18v2.68H143V50.12Z"/><path id="Pfad_472" data-name="Pfad 472" class="cls-1" d="M150.51,53.47h0a1.92,1.92,0,0,1-1.73,1c-1.55,0-1.79-1-1.79-1.54,0-1.82,1.94-1.9,3.35-1.9h.12v-.28c0-.93-.33-1.4-1.23-1.4a2.83,2.83,0,0,0-1.6.45v-.65a4.17,4.17,0,0,1,1.6-.38c1.34,0,1.9.61,1.9,2v2.4a7.26,7.26,0,0,0,.06,1.14h-.66v-.88Zm-.07-1.87h-.19c-1.16,0-2.55.12-2.55,1.32,0,.71.52,1,1.13,1,1.58,0,1.61-1.38,1.61-2Z"/></g><g id="Gruppe_29" data-name="Gruppe 29"><path id="Pfad_473" data-name="Pfad 473" class="cls-2" d="M30.21,2.47S24.57,0,15.13,0h0C5.69,0,.05,2.47.05,2.47S-.45,13.4,1.69,19.58A22.83,22.83,0,0,0,15.13,33.51h0A22.84,22.84,0,0,0,28.58,19.58C30.72,13.4,30.21,2.47,30.21,2.47Z"/></g><path id="Pfad_474" data-name="Pfad 474" class="cls-3" d="M25.15,11.89v6h-7v7h-6v-7h-7v-6h7v-7h6v7Z"/></g></g></g></svg>