<svg xmlns="http://www.w3.org/2000/svg" xmlns:xlink="http://www.w3.org/1999/xlink" viewBox="0 0 731.64 780.87"><defs><style>.cls-1{fill:#4ca22f;}.cls-2,.cls-3,.cls-4{fill:none;}.cls-3{clip-path:url(#clip-path);}.cls-11,.cls-12,.cls-4{stroke:#1d1d1b;stroke-miterlimit:3.86;}.cls-12,.cls-4{stroke-width:2.83px;}.cls-5{clip-path:url(#clip-path-2);}.cls-6{fill:#a4acb0;}.cls-7{clip-path:url(#clip-path-3);}.cls-8{clip-path:url(#clip-path-4);}.cls-13,.cls-9{fill:#fff;}.cls-9{fill-rule:evenodd;}.cls-10{fill:#bbc1c5;}.cls-11{fill:#7a0233;stroke-width:1.12px;}.cls-12{fill:#1d1d1b;}</style><clipPath id="clip-path"><polygon class="cls-2" points="305.32 621.22 469.23 211.74 564.43 211.74 729.54 621.22 636.14 621.22 599.99 527.35 429.45 527.35 392.7 621.22 305.32 621.22 305.32 621.22"/></clipPath><clipPath id="clip-path-2"><path class="cls-1" d="M260.85,758.62a565.24,565.24,0,0,1-94.59-66.73C95.8,630.42,20.7,533.37,1.83,390.78V87.85c85.11-54.53,188-86.43,298.84-86.43s213.78,31.89,298.9,86.43V390.57c-21.22,145-96.38,242.12-166.28,303a547,547,0,0,1-93.54,65.66,385.88,385.88,0,0,1-39.12,19.16,406.5,406.5,0,0,1-39.78-19.8Z"/></clipPath><clipPath id="clip-path-3"><path class="cls-3" d="M260.85,758.62a565.24,565.24,0,0,1-94.59-66.73C95.8,630.42,20.7,533.37,1.83,390.78V87.85c85.11-54.53,188-86.43,298.84-86.43s213.78,31.89,298.9,86.43V390.57c-21.22,145-96.38,242.12-166.28,303a547,547,0,0,1-93.54,65.66,385.88,385.88,0,0,1-39.12,19.16,406.5,406.5,0,0,1-39.78-19.8Z"/></clipPath><clipPath id="clip-path-4"><path class="cls-4" d="M260.85,758.62a565.24,565.24,0,0,1-94.59-66.73C95.8,630.42,20.7,533.37,1.83,390.78V87.85c85.11-54.53,188-86.43,298.84-86.43s213.78,31.89,298.9,86.43V390.57c-21.22,145-96.38,242.12-166.28,303a547,547,0,0,1-93.54,65.66,385.88,385.88,0,0,1-39.12,19.16,406.5,406.5,0,0,1-39.78-19.8Z"/></clipPath></defs><title>lba</title><g id="Ebene_2" data-name="Ebene 2"><g id="Ebene_1-2" data-name="Ebene 1"><path class="cls-1" d="M260.85,758.62a565.24,565.24,0,0,1-94.59-66.73C95.8,630.42,20.7,533.37,1.83,390.78V87.85c85.11-54.53,188-86.43,298.84-86.43s213.78,31.89,298.9,86.43V390.57c-21.22,145-96.38,242.12-166.28,303a547,547,0,0,1-93.54,65.66,385.88,385.88,0,0,1-39.12,19.16,406.5,406.5,0,0,1-39.78-19.8Z"/><g class="cls-5"><polygon class="cls-6" points="305.32 621.22 469.23 211.74 564.43 211.74 729.54 621.22 636.14 621.22 599.99 527.35 429.45 527.35 392.7 621.22 305.32 621.22 305.32 621.22"/></g><g class="cls-7"><polygon class="cls-1" points="576.49 462.82 514.41 293.87 453.56 462.82 576.49 462.82 576.49 462.82"/><polygon class="cls-4" points="576.49 462.82 514.41 293.87 453.56 462.82 576.49 462.82 576.49 462.82"/></g><g class="cls-8"><polygon class="cls-4" points="305.32 621.22 469.23 211.74 564.43 211.74 729.54 621.22 636.14 621.22 599.99 527.35 429.45 527.35 392.7 621.22 305.32 621.22 305.32 621.22"/><path class="cls-9" d="M229.89,579.85V709.07h45A200.4,200.4,0,0,0,320,704.49q22.39-4.86,37.41-18.36T373,647q-.48-28.74-14.84-43.29t-36.66-19.4a204.91,204.91,0,0,0-46.66-4.48ZM134.46,779.43V333H300.79q31.82-.6,67,7.94A125.68,125.68,0,0,1,428,374.27q25,24.84,26.13,73.18-.62,40.17-26.16,66.21t-68.59,33.57v1.28q49.32,5,78.82,32.39t30.25,69.31q-.62,41.92-17.77,67.69A113,113,0,0,1,407.13,757a188.61,188.61,0,0,1-54.83,18q-28.41,4.66-51.51,4.36Zm95.43-376.12v110h38.86A195.8,195.8,0,0,0,310,509.47q20.55-4.12,34.39-15.94T358.73,459q-.48-25.48-14.16-37.45T310,406.22a247.53,247.53,0,0,0-43.25-2.91Z"/><path class="cls-4" d="M229.89,579.85V709.07h45A200.4,200.4,0,0,0,320,704.49q22.39-4.86,37.41-18.36T373,647q-.48-28.74-14.84-43.29t-36.66-19.4a204.91,204.91,0,0,0-46.66-4.48ZM134.46,779.43V333H300.79q31.82-.6,67,7.94A125.68,125.68,0,0,1,428,374.27q25,24.84,26.13,73.18-.62,40.17-26.16,66.21t-68.59,33.57v1.28q49.32,5,78.82,32.39t30.25,69.31q-.62,41.92-17.77,67.69A113,113,0,0,1,407.13,757a188.61,188.61,0,0,1-54.83,18q-28.41,4.66-51.51,4.36Zm95.43-376.12v110h38.86A195.8,195.8,0,0,0,310,509.47q20.55-4.12,34.39-15.94T358.73,459q-.48-25.48-14.16-37.45T310,406.22a247.53,247.53,0,0,0-43.25-2.91Z"/><polygon class="cls-10" points="1.42 621.45 1.42 211.98 85.78 211.98 85.78 556.92 249.08 556.92 249.08 621.45 1.42 621.45 1.42 621.45"/><polygon class="cls-4" points="1.42 621.45 1.42 211.98 85.78 211.98 85.78 556.92 249.08 556.92 249.08 621.45 1.42 621.45 1.42 621.45"/><path class="cls-11" d="M212.53,223c-45.94,39.13-67,106.68-60.54,156.33,0,.2,14.71-15.5,14.71-15.5l16.48,12.33c-4.92-38.72,11.23-91.61,50.82-132.06.14-.15,7.94,12.25,7.94,12.25l7.58-43.48L203,209.28,212.53,223Z"/><path class="cls-11" d="M159.65,417.33c13.15,56.89,64.94,107.82,114,127.36.2.07-6.94-19.71-6.94-19.71l19.61-7.23c-38.19-15.36-78.93-54.93-96.47-107.32-.06-.19,15.27-.33,15.27-.33l-36.34-27.9-26.55,36.05,17.41-.92Z"/><path class="cls-11" d="M417.36,169c-59.08-17.77-132-1.15-174.54,29-.18.12,21.66,4.21,21.66,4.21l-3.14,19.55c33.27-23.36,90.17-36.67,147.29-24.73.21,0-7.33,12.58-7.33,12.58L445.22,194l-20-39.6L417.36,169Z"/><path class="cls-11" d="M571.89,308.87C558.75,252,507,201.06,457.88,181.52c-.19-.08,6.95,19.7,6.95,19.7l-19.61,7.23c38.19,15.36,78.93,54.93,96.47,107.32.07.19-15.27.33-15.27.33L562.76,344,589.31,308l-17.42.92Z"/><path class="cls-11" d="M310.32,558.86c59.09,17.77,132,1.14,174.55-29,.18-.12-21.66-4.21-21.66-4.21l3.14-19.55c-33.28,23.36-90.17,36.68-147.3,24.73-.2,0,7.34-12.57,7.34-12.57l-43.92,15.58,20,39.6,7.85-14.61Z"/><path class="cls-11" d="M519.78,503.53c45.94-39.13,67-106.68,60.54-156.32,0-.2-14.72,15.5-14.72,15.5l-16.47-12.33c4.92,38.71-11.23,91.61-50.82,132.06-.14.14-7.94-12.25-7.94-12.25l-7.58,43.48,46.55,3.55-9.56-13.69Z"/></g><path class="cls-4" d="M260.85,758.62a565.24,565.24,0,0,1-94.59-66.73C95.8,630.42,20.7,533.37,1.83,390.78V87.85c85.11-54.53,188-86.43,298.84-86.43s213.78,31.89,298.9,86.43V390.57c-21.22,145-96.38,242.12-166.28,303a547,547,0,0,1-93.54,65.66,385.88,385.88,0,0,1-39.12,19.16,406.5,406.5,0,0,1-39.78-19.8Z"/><path class="cls-12" d="M2.15,142.79c-.11-24-.26-47.72-.31-54.95C87,33.32,189.83,1.42,300.67,1.42s213.78,31.89,298.9,86.43V194.71C366.68,52.67,124,116.54,2.19,193.86c.1-11.33,0-31.6,0-51.07Z"/><polygon class="cls-13" points="120.48 109.03 144.18 102.23 142.11 95.89 126.89 100.26 114.82 63.24 106.35 65.67 120.48 109.03 120.48 109.03"/><path class="cls-9" d="M152.57,82.62c-1.44-5.42-1.69-11.45,3.69-12.71s8.1,4.2,9.54,9.62,1.78,11.5-3.6,12.75S154,88,152.57,82.62Zm-8.59,2c3.61,13.62,12.64,14.85,19.7,13.2S178,91.13,174.4,77.52c-3.52-13.24-12.56-14.81-19.62-13.15s-14.32,7-10.8,20.26Z"/><path class="cls-9" d="M190.29,74.57c-1.26-6.72-.28-10.84,4.14-11.64,4-.72,7.5,2.52,8.8,9.43,1.41,7.48,0,11.42-5.35,12.3-2.86.47-6.14-2.35-7.59-10.09Zm-1.71,30.16a38.52,38.52,0,0,0,12.45,0c12.88-2.13,14.84-10,12.91-20.34l-4.57-24.31c-.33-1.72-.51-3.47-.7-5.22L201,56.17c.26,1.74.37,3.43.69,5.16l-.27.05c-2.32-2.59-5.22-4.94-10.33-4.1-9.2,1.52-11.18,10.1-9.47,19.18,2.5,13.3,10.44,15.16,15.35,14.34,5.52-.91,7.34-4.31,8.22-7.1l.14,0,.59,3.14c1,5.18.65,10.57-7.33,11.89a23.88,23.88,0,0,1-10.89-1.1l.85,7.12Z"/><path class="cls-9" d="M223.38,87l8.52-1-4.35-33.2-8.52,1L223.38,87Zm-5.3-39.44,8.79-1-1-7.87-8.79,1,1,7.86Z"/><path class="cls-13" d="M239.06,84.06a30.55,30.55,0,0,0,10,.8c7.73-.63,12.9-4.77,12.33-10.92-.36-3.88-2.75-5.58-7.41-7.87l-4.44-2.18c-2.62-1.28-4.23-2.13-4.4-3.94-.18-2,1.15-3.35,4.6-3.63a20.54,20.54,0,0,1,7.65.87l-.09-6.26a30.4,30.4,0,0,0-9-.62c-7.51.61-11.82,5.86-11.39,10.45.49,5.24,4.62,7.06,8.39,8.77l3.7,1.65c3.26,1.43,4.06,2.6,4.19,3.89.24,2.59-2.11,3.5-5.21,3.76-4,.32-7.68-1.07-9.11-1.47l.21,6.7Z"/><path class="cls-13" d="M270.77,49.54l-5.67.19.22,5.91,5.67-.19.68,18.31c.26,7,4,9.62,10.33,9.41a14.18,14.18,0,0,0,5.7-1.29l-.22-5.72a7.12,7.12,0,0,1-3.22.83c-2.49.08-3.91-.92-4.05-4.49l-.64-17.33,7.12-.23L286.47,49l-7.12.23L279,39.92l-8.49,2.74.26,6.88Z"/><path class="cls-9" d="M294.13,82.38h8.58V48.93h-8.58V82.38ZM294,42.63h8.86V34.7H294v7.93Z"/><polygon class="cls-13" points="311.42 82.28 320 82.56 320.6 66.26 320.81 66.27 331 82.92 340.96 83.24 327.94 64.49 341.03 49.77 331.89 49.48 320.95 62.5 320.74 62.5 321.81 33.87 313.23 33.59 311.42 82.28 311.42 82.28"/><path class="cls-9" d="M351.82,35.41,347,78.17a38.82,38.82,0,0,1-.91,5.66l8,.79a43.13,43.13,0,0,0,.85-5.15l.21,0c1.06,3,3.29,6.07,8.79,6.61,8.82.87,13.35-6.65,14.38-15.89,1.22-10.85-2.69-17.64-10.33-18.39-5.09-.5-8.22,1.93-9.75,4.39h-.14l2.24-20-8.54-.84Zm5,32.56c.72-6.46,3.18-11,7.86-10.53s5.92,5,5.17,11.62c-.86,7.68-2.6,11.43-7.56,10.94s-6.17-5.77-5.47-12Z"/><path class="cls-9" d="M390.26,63.53a17.34,17.34,0,0,1,10.21-1.6c4.84.8,6,4.08,5.37,7.35l-.23,1.21-1.71-.28c-10.7-1.77-18.89-.82-20.57,8.14-1.16,6.14,3.22,10.49,8.68,11.39,5,.84,8.13-1,10.75-3.36l.14,0a16,16,0,0,0-.37,4.56l7.64,1.26a38.8,38.8,0,0,1,.62-5.9l2.7-14.39c1.55-8.25,0-13.66-10.94-15.47a26.39,26.39,0,0,0-11.57.6l-.72,6.47Zm14.21,13c-1.11,5.88-3.61,9.1-8.66,8.26-3.27-.54-5-2.94-4.43-5.94.9-4.8,5.46-5.5,12.68-4.3l.75.12-.34,1.86Z"/><path class="cls-13" d="M416.63,92.21a29.88,29.88,0,0,0,9.25,3.67c7.56,1.64,13.84-.8,15.32-6.81.93-3.8-.77-6.1-4.45-9.63l-3.51-3.36c-2.07-2-3.32-3.26-2.88-5,.48-2,2.19-2.85,5.56-2.12a20.2,20.2,0,0,1,7,3l2-6a29.46,29.46,0,0,0-8.37-3.21c-7.35-1.59-13.17,2.14-14.28,6.64-1.26,5.12,2.07,8,5.1,10.77l3,2.64c2.64,2.3,3,3.65,2.71,4.92-.63,2.53-3.16,2.71-6.2,2.06-3.9-.85-6.94-3.24-8.16-4l-2,6.43Z"/><path class="cls-9" d="M446.09,100l8.25,2.22,9.83-32.16-8.25-2.22L446.09,100Zm11.55-38.25L466.15,64l2.33-7.62L460,54.13l-2.33,7.62Z"/><path class="cls-13" d="M461.78,102.92a29.68,29.68,0,0,0,8.89,4.41c7.36,2.25,13.85.33,15.88-5.53,1.29-3.71-.2-6.14-3.53-10l-3.19-3.64c-1.88-2.14-3-3.51-2.4-5.24.66-1.91,2.45-2.66,5.74-1.66a19.93,19.93,0,0,1,6.69,3.61l2.51-5.79a29.42,29.42,0,0,0-8-3.89C477.15,73,471,76.29,469.49,80.68c-1.74,5,1.31,8.18,4.07,11.14l2.72,2.88c2.4,2.51,2.65,3.88,2.23,5.12-.86,2.47-3.4,2.45-6.36,1.54-3.82-1.16-6.62-3.79-7.77-4.69l-2.6,6.25Z"/></g></g></svg>