<?xml version="1.0" encoding="utf-8"?>
<!-- Generator: Adobe Illustrator 23.0.6, SVG Export Plug-In . SVG Version: 6.00 Build 0)  -->
<svg version="1.1" id="Ebene_1" xmlns="http://www.w3.org/2000/svg" xmlns:xlink="http://www.w3.org/1999/xlink" x="0px" y="0px"
	 viewBox="0 0 1140.9 204.2" style="enable-background:new 0 0 1140.9 204.2;" xml:space="preserve">
<style type="text/css">
	.st0{fill:#1D1D1B;}
</style>
<title>logo-zem</title>
<g>
	<g id="Ebene_1-2">
		<polygon class="st0" points="779.9,24.5 706.5,120.1 706.5,120.6 782.6,120.6 782.6,140.9 673.2,140.9 673.2,125.7 747.8,29.9 
			747.8,29.6 677,29.6 677,9.4 779.9,9.4 779.9,24.5 		"/>
		<path class="st0" d="M819.6,63.4h70.7c0-23.5-10.5-37-32.9-37C837.1,26.4,822,40.1,819.6,63.4z M857.4,6.1
			c36.5,0,54.8,21.9,54.8,65.1v11.3h-92.6c2.2,27.6,16.5,41.1,43.7,41.1c23.5,0,35.4-9.7,40-13.8l8.1,16.8
			c-5.9,5.7-19.4,17.6-49.1,17.6c-40,0-65.3-21.9-65.3-70.8C797,29.6,824,6.1,857.4,6.1L857.4,6.1z"/>
		<path class="st0" d="M1139.8,140.9h-22.4V65c0-27.5-11.3-38.6-32.4-38.6c-16.7,0-28.3,8.9-35.4,15.9c1.1,6,1.7,12,1.6,18.1v80.5
			h-22.1V65c0-27.5-11.9-38.6-32.1-38.6c-16.7,0-28.3,10.3-34.6,17v97.5H940V9.4h21.6v14.8h0.5c5.7-7,19.4-18.1,42.1-18.1
			c18.1,0,31.9,6.5,39.7,20.8c6.8-7.8,21.9-20.8,47.5-20.8c30.2,0,48.3,16.2,48.3,54.3L1139.8,140.9L1139.8,140.9z"/>
		<polygon class="st0" points="707.7,197.1 703.4,197.1 693.3,169.1 693.2,169.1 683.1,197.1 678.8,197.1 671.4,163 675.6,163 
			681.2,190.6 681.3,190.6 691.1,163 695.4,163 705.2,190.6 705.2,190.6 710.9,163 715.1,163 707.7,197.1 		"/>
		<polygon class="st0" points="726.6,197.1 722.5,197.1 722.5,163 726.6,163 726.6,197.1 		"/>
		<path class="st0" d="M746.6,166.7h-6.1v13.7h6c7.2,0,10.5-2.7,10.5-7S753.7,166.8,746.6,166.7L746.6,166.7z M757.5,197.1
			l-8.6-13.1c-0.8,0.1-1.6,0.1-2.4,0.1h-6v13h-4.1V163h10.2c9.8,0,14.5,3.4,14.5,10.2c0,4.9-2.7,8.5-8,10l9.3,13.8L757.5,197.1z"/>
		<polygon class="st0" points="787.9,193.4 806.3,193.4 806.3,197.1 783.8,197.1 783.8,163 787.9,163 787.9,193.4 		"/>
		<polygon class="st0" points="834,166.7 816.3,166.7 816.3,178 832.5,178 832.5,181.7 816.3,181.7 816.3,193.4 834.5,193.4 
			834.5,197.1 812.2,197.1 812.2,163 834,163 834,166.7 		"/>
		<path class="st0" d="M853.5,181.7h-7.8v11.7h7.8c6.8,0,9.7-2,9.7-5.7S860.1,181.7,853.5,181.7L853.5,181.7z M853.1,166.7h-7.4V178
			h7.3c6.5,0,9.4-2.4,9.4-5.9C862.4,168.3,859.6,166.7,853.1,166.7L853.1,166.7z M853.7,197.1h-12.1V163h11.8
			c9.1,0,13.1,3.3,13.1,8.6c0,4.9-3.3,7.3-7.4,8.1v0.1c4.6,0.6,8.2,3.5,8.2,8.2C867.4,193.3,863,197.1,853.7,197.1L853.7,197.1z"/>
		<polygon class="st0" points="897,166.7 879.2,166.7 879.2,178 895.4,178 895.4,181.7 879.2,181.7 879.2,193.4 897.5,193.4 
			897.5,197.1 875.1,197.1 875.1,163 897,163 897,166.7 		"/>
		<polygon class="st0" points="932.5,197.1 928.7,197.1 908.7,170.3 908.6,170.3 908.6,197.1 904.5,197.1 904.5,163 908.4,163 
			928.3,189.9 928.4,189.9 928.4,163 932.5,163 932.5,197.1 		"/>
		<polygon class="st0" points="992.5,197.1 988.4,197.1 988.4,171.1 988.3,171.1 976.3,197.1 972.5,197.1 960.5,171.1 960.4,171.1 
			960.4,197.1 956.3,197.1 956.3,163 961.1,163 974.3,191.4 974.5,191.4 987.7,163 992.5,163 992.5,197.1 		"/>
		<polygon class="st0" points="1023.6,166.7 1005.8,166.7 1005.8,178 1022,178 1022,181.7 1005.8,181.7 1005.8,193.4 1024.1,193.4 
			1024.1,197.1 1001.7,197.1 1001.7,163 1023.6,163 1023.6,166.7 		"/>
		<path class="st0" d="M1040.9,166.7h-5.7v26.7h5.7c10.6,0,16.6-4.3,16.6-13.6C1057.5,170.8,1051.6,166.8,1040.9,166.7L1040.9,166.7
			z M1040.9,197.1h-9.8V163h9.8c13,0,20.8,5,20.8,16.8S1054.1,197.1,1040.9,197.1L1040.9,197.1z"/>
		<polygon class="st0" points="1073.6,197.1 1069.5,197.1 1069.5,163 1073.6,163 1073.6,197.1 		"/>
		<polygon class="st0" points="1105.3,166.7 1087.5,166.7 1087.5,178 1103.7,178 1103.7,181.7 1087.5,181.7 1087.5,193.4 
			1105.8,193.4 1105.8,197.1 1083.4,197.1 1083.4,163 1105.3,163 1105.3,166.7 		"/>
		<polygon class="st0" points="1140.9,197.1 1137,197.1 1117.1,170.3 1117,170.3 1117,197.1 1112.9,197.1 1112.9,163 1116.7,163 
			1136.7,189.9 1136.8,189.9 1136.8,163 1140.9,163 1140.9,197.1 		"/>
		<path d="M304,2.1h6.5l11.2,28.6h-6.4l-2.5-6.6h-11.6l-2.5,6.6h-6L304,2.1z M307.2,7.9L307.2,7.9L303,19.7h8.4L307.2,7.9z"/>
		<path d="M339.4,28.4L339.4,28.4c-1.7,1.9-4.1,3-6.6,2.9c-6.5,0-8.9-5.3-8.9-11.1s2.4-11,8.9-11c2.5-0.1,4.8,1,6.3,3h0.1V0h5.5
			v30.8h-5.3V28.4z M334.4,27c3.6,0,4.8-3.9,4.8-6.9s-1.4-6.7-4.9-6.7s-4.5,3.9-4.5,6.7S330.8,27,334.4,27L334.4,27z"/>
		<path d="M351.7,10.7c2.3-1,4.8-1.6,7.3-1.6c6.4,0,9.1,2.7,9.1,8.9v2.7c0,2.1,0,3.7,0.1,5.3s0.1,3.1,0.2,4.7h-4.8
			c-0.2-1-0.2-2.1-0.2-3.2h-0.1c-1.4,2.3-3.9,3.7-6.5,3.6c-3.7,0-7.4-2.2-7.4-6.3c-0.1-2.6,1.3-4.9,3.6-6c2.2-0.9,4.7-1.3,7.1-1.2h3
			c0-3.4-1.5-4.6-4.8-4.6c-2.4,0-4.7,0.9-6.5,2.3L351.7,10.7z M358.2,27.2c1.5,0,2.9-0.7,3.8-1.9c0.9-1.3,1.3-2.8,1.2-4.3h-2.4
			c-2.5,0-6.1,0.4-6.1,3.6C354.7,26.5,356.2,27.2,358.2,27.2L358.2,27.2z"/>
		<path d="M373.9,9.6h5.1v2.9h0.1c1.4-2.1,3.7-3.5,6.3-3.4c3,0,5,1.1,6.2,3.7c1.3-2.4,3.9-3.8,6.6-3.7c5.2,0,6.7,3.6,6.7,8.3v13.3
			h-5.5V18.2c0-2,0-4.8-3.2-4.8c-3.6,0-4.1,4.3-4.1,7.1v10.2h-5.5V18.2c0-2,0-4.8-3.2-4.8c-3.6,0-4.1,4.3-4.1,7.1v10.2h-5.5
			L373.9,9.6z"/>
		<path d="M423.2,2.1h7.8c8.8,0,16.5,3,16.5,14.3s-7.8,14.3-16.5,14.3h-7.8L423.2,2.1z M428.9,26.2h3.2c5.2,0,9.4-4.1,9.4-9.3
			c0-0.2,0-0.3,0-0.5c0.2-5.2-3.7-9.5-8.9-9.8c-0.2,0-0.3,0-0.5,0h-3.2V26.2z"/>
		<path d="M462.4,9.1c6.3,0,11.1,4.2,11.1,11.2c0,6.1-4.1,10.9-11.1,10.9s-11-4.8-11-10.9C451.3,13.4,456.1,9.1,462.4,9.1z
			 M462.4,27c4.2,0,5.3-3.8,5.3-7.3c0-3.2-1.7-6.3-5.3-6.3s-5.3,3.1-5.3,6.3C457.1,23.2,458.2,27,462.4,27L462.4,27z"/>
		<path d="M478.3,0h5.5v30.8h-5.5V0z"/>
		<path d="M490.1,0.5h5.5v5.2h-5.5V0.5z M490.1,9.6h5.5v21.1h-5.5V9.6z"/>
		<path d="M501.8,9.6h5.2v2.9l0,0c1.6-2.3,4.2-3.6,7-3.4c5,0,7.2,3.5,7.2,8.3v13.3h-5.5V19.5c0-2.6,0-6.1-3.6-6.1
			c-4,0-4.8,4.3-4.8,7v10.3h-5.5L501.8,9.6z"/>
		<path d="M539.8,14.1c-1.6-0.6-3.2-0.9-4.9-0.9c-1.5,0-3.2,0.5-3.2,2.3c0,3.4,9.6,1.2,9.6,8.9c0,4.9-4.4,6.9-8.9,6.9
			c-2.1,0-4.2-0.3-6.2-0.9l0.3-4.5c1.7,0.9,3.5,1.4,5.4,1.4c1.4,0,3.6-0.5,3.6-2.6c0-4.1-9.6-1.3-9.6-8.9c0-4.6,4-6.6,8.3-6.6
			c2,0,4,0.3,6,0.8L539.8,14.1z"/>
		<path d="M546,0h5.5v18.1h0.1l6.6-8.4h6.5l-7.9,9.4l8.9,11.7h-7l-7.1-10.2h-0.1v10.2H546V0z"/>
		<path d="M577.8,25L577.8,25L583,9.6h5.6l-7.9,21c-1.8,4.7-3,9.3-8.8,9.3c-1.3,0-2.6-0.2-3.9-0.6l0.4-4.1c0.9,0.3,1.9,0.4,2.8,0.4
			c1.9,0.1,3.5-1.4,3.6-3.3c0-0.2,0-0.3,0-0.5l-8.1-22.2h6.1L577.8,25z"/>
		<path d="M87.9,58.1h4.4l10.5,25.2l10.5-25.2h4.1v28.6h-2.8V61h-0.1L104,86.8h-2.4L90.8,61h-0.1v25.8h-2.8V58.1z"/>
		<path d="M138.5,86.1c-1.9,0.7-4,1.1-6.1,1.2c-6.9,0-9.5-4.7-9.5-10.9s3.5-11,8.8-11c5.9,0,8.3,4.8,8.3,10.4V77h-14.3
			c0,4.4,2.4,8,6.9,8c2-0.1,4.1-0.6,5.9-1.6V86.1z M137.2,74.8c0-3.7-1.5-7.3-5.3-7.3s-6.2,3.8-6.2,7.3H137.2z"/>
		<path d="M162,86.8h-2.6v-3.3h-0.1c-1.2,2.5-3.8,4-6.5,3.8c-5.7,0-8.6-4.8-8.6-10.9c0-6.4,2.5-11,8.6-11c2.8-0.1,5.3,1.5,6.5,4h0.1
			V56h2.6V86.8z M153.2,85c4.6,0,6.2-4.9,6.2-8.7s-1.6-8.7-6.2-8.7c-4.9,0-6.2,4.7-6.2,8.7S148.3,85,153.2,85z"/>
		<path d="M171.2,61.1h-2.6v-3.4h2.6V61.1z M168.6,65.8h2.6v20.9h-2.6V65.8z"/>
		<path d="M190.1,83.4H190c-1.3,2.4-3.9,3.9-6.6,3.8c-5.9,0-6.9-4-6.9-5.9c0-7,7.5-7.3,12.9-7.3h0.5v-1.1c0-3.6-1.3-5.4-4.8-5.4
			c-2.2,0-4.3,0.6-6.1,1.7v-2.5c1.9-0.9,4-1.4,6.1-1.4c5.2,0,7.3,2.3,7.3,7.8v9.2c0,1.5,0,2.9,0.2,4.4h-2.5L190.1,83.4z M189.9,76.2
			h-0.7c-4.5,0-9.8,0.4-9.8,5.1c0,2.7,2,3.8,4.4,3.8c6.1,0,6.2-5.3,6.2-7.6V76.2z"/>
		<path d="M224.3,86.8V72.8c0-2.9-1.1-5.3-4.4-5.3c-2.8,0-5.6,2.4-5.6,7.6v11.6h-2.6V72.8c0-2.9-1.1-5.3-4.4-5.3
			c-2.8,0-5.6,2.4-5.6,7.6v11.6H199v-16c0-1.6,0-3.2-0.2-4.9h2.5v3.5h0.1c0.8-1.4,2-4.1,6.5-4.1c2.7-0.2,5.1,1.7,5.5,4.4h0.1
			c1.1-2.7,3.7-4.5,6.7-4.4c4.2,0,6.6,3,6.6,7v14.4H224.3z"/>
		<path d="M245.6,83.4L245.6,83.4c-1.4,2.4-4,3.9-6.7,3.8c-6,0-6.9-4-6.9-5.9c0-7,7.5-7.3,12.9-7.3h0.5v-1.1c0-3.6-1.3-5.4-4.8-5.4
			c-2.2,0-4.3,0.6-6.1,1.7v-2.5c1.9-0.9,4-1.4,6.1-1.4c5.2,0,7.3,2.3,7.3,7.8v9.2c0,1.5,0,2.9,0.2,4.4h-2.5V83.4z M245.3,76.2h-0.7
			c-4.5,0-9.8,0.4-9.8,5.1c0,2.7,2,3.8,4.3,3.8c6.1,0,6.2-5.3,6.2-7.6V76.2z"/>
		<path d="M263.5,68.1h-4.8v13.5c0,1.9,0.7,3.4,2.8,3.4c0.8,0,1.6-0.2,2.4-0.5l0.2,2.1c-1,0.4-2.1,0.6-3.2,0.6c-4.6,0-4.8-3.2-4.8-7
			V68.1h-4.1v-2.2h4.1v-5l2.6-0.9v5.9h4.8V68.1z"/>
		<path d="M271.1,61.1h-2.6v-3.4h2.6V61.1z M268.6,65.8h2.6v20.9h-2.6V65.8z"/>
		<path d="M278.1,56h2.6v18.4l9.4-8.6h3.3l-10.2,9.3l11.4,11.6H291L280.6,76v10.8h-2.6L278.1,56z"/>
		<path d="M313,86.1c-1.9,0.7-4,1.1-6.1,1.2c-6.9,0-9.5-4.7-9.5-10.9s3.5-11,8.8-11c5.9,0,8.3,4.8,8.3,10.4V77h-14.3
			c0,4.4,2.4,8,6.9,8c2-0.1,4.1-0.6,5.9-1.5V86.1z M311.7,74.8c0-3.7-1.5-7.3-5.3-7.3s-6.1,3.8-6.1,7.3H311.7z"/>
		<path d="M319.9,70.5c0-1.6,0-3.1-0.2-4.7h2.6v4h0.1c1-2.3,2.7-4.5,5.4-4.5c0.6,0,1.2,0.1,1.8,0.2v2.7c-0.6-0.2-1.3-0.3-1.9-0.2
			c-4.1,0-5.2,4.6-5.2,8.4v10.3h-2.6L319.9,70.5z"/>
		<path d="M348.3,61.1h-2.6v-3.4h2.6V61.1z M345.8,65.8h2.6v20.9h-2.6V65.8z"/>
		<path d="M355.3,70.8c0-1.6,0-3.2-0.2-4.9h2.5v3.7h0.1c0.9-1.9,2.4-4.2,6.8-4.2c5.2,0,7.1,3.4,7.1,8v13.4H369V74
			c0-3.9-1.4-6.5-5-6.5c-4.7,0-6.2,4.1-6.2,7.6v11.6h-2.6L355.3,70.8z"/>
		<path d="M399.3,58.1h3.2l11.4,28.6h-3l-3.1-7.7h-14.4l-3.1,7.7h-2.8L399.3,58.1z M400.7,60.8l-6.2,15.8h12.4L400.7,60.8z"/>
		<path d="M434.4,81.8c0,1.6,0,3.3,0.2,4.9H432V83h-0.1c-0.9,1.9-2.4,4.2-6.8,4.2c-5.2,0-7.1-3.4-7.1-8V65.8h2.6v12.7
			c0,3.9,1.4,6.5,5,6.5c4.7,0,6.2-4.1,6.2-7.6V65.8h2.6L434.4,81.8z"/>
		<path d="M439.6,83.7c1.7,0.8,3.6,1.3,5.4,1.3c2.5,0,4.6-1.3,4.6-3.7c0-5-10-4.2-10-10.2c0-4.1,3.4-5.7,6.8-5.7
			c1.8,0,3.5,0.4,5.2,0.9l-0.2,2.3c-1.5-0.6-3-1-4.6-1c-2.7,0-4.5,0.8-4.5,3.5c0,3.9,10.3,3.4,10.3,10.2c0,4.4-4.1,5.9-7.3,5.9
			c-2,0-4-0.3-5.9-1L439.6,83.7z"/>
		<path d="M457.4,56h2.6v13.4h0.1c1.2-2.5,3.7-4.1,6.5-4c6.1,0,8.6,4.6,8.6,11c0,6.2-2.9,10.9-8.6,10.9c-2.8,0.2-5.4-1.4-6.5-3.9
			h-0.1v3.3h-2.6L457.4,56z M466.1,67.6c-4.7,0-6.2,4.9-6.2,8.7s1.6,8.7,6.2,8.7c4.9,0,6.2-4.7,6.2-8.7S471,67.6,466.1,67.6z"/>
		<path d="M483.4,61.1h-2.6v-3.4h2.6V61.1z M480.8,65.8h2.6v20.9h-2.6V65.8z"/>
		<path d="M490.3,56h2.6v30.8h-2.6V56z"/>
		<path d="M516.4,86.8h-2.6v-3.3h-0.1c-1.2,2.5-3.8,4-6.5,3.8c-5.7,0-8.6-4.8-8.6-10.9c0-6.4,2.5-11,8.6-11c2.8-0.1,5.3,1.5,6.5,4
			h0.1V56h2.6V86.8z M507.6,85c4.6,0,6.2-4.9,6.2-8.7s-1.6-8.7-6.2-8.7c-4.9,0-6.2,4.7-6.2,8.7S502.7,85,507.6,85z"/>
		<path d="M539.3,81.8c0,1.6,0,3.3,0.2,4.9H537V83h-0.1c-0.9,1.9-2.4,4.2-6.8,4.2c-5.2,0-7.1-3.4-7.1-8V65.8h2.6v12.7
			c0,3.9,1.4,6.5,5,6.5c4.7,0,6.2-4.1,6.2-7.6V65.8h2.6L539.3,81.8z"/>
		<path d="M546.2,70.8c0-1.6,0-3.2-0.2-4.9h2.5v3.7h0.1c0.9-1.9,2.4-4.2,6.8-4.2c5.2,0,7.1,3.4,7.1,8v13.4H560V74
			c0-3.9-1.4-6.5-5-6.5c-4.7,0-6.2,4.1-6.2,7.6v11.6h-2.6L546.2,70.8z"/>
		<path d="M586,85c0,5.8-2.6,10.6-9.8,10.6c-2.1-0.1-4.3-0.4-6.3-1.1l0.2-2.6c1.9,0.9,4,1.4,6.2,1.5c6.6,0,7.2-4.8,7.2-10.7h-0.1
			c-1,2.6-3.6,4.2-6.4,4.1c-6.7,0-8.8-5.8-8.8-10.4c0-6.4,2.5-11,8.6-11c2.8,0,4.6,0.4,6.5,2.9h0.1v-2.3h2.6V85z M577.1,84.5
			c4.7,0,6.4-4.4,6.4-8.2c0-5-1.5-8.7-6.2-8.7c-4.9,0-6.2,4.7-6.2,8.7S572.7,84.5,577.1,84.5L577.1,84.5z"/>
		<path d="M45.8,140.3l14.9-23.7H46.1v-2.5h17.5v2.5l-14.8,23.7h15.3v2.5H45.8V140.3z"/>
		<path d="M83.1,142.1c-1.9,0.7-4,1.1-6.1,1.2c-6.9,0-9.5-4.7-9.5-10.9s3.5-11,8.8-11c5.9,0,8.3,4.8,8.3,10.4v1.3H70.3
			c0,4.4,2.4,8,6.9,8c2.1-0.1,4.1-0.6,5.9-1.6V142.1z M81.8,130.8c0-3.7-1.5-7.3-5.3-7.3s-6.2,3.8-6.2,7.3H81.8z"/>
		<path d="M90,126.8c0-1.6,0-3.3-0.2-4.9h2.5v3.7h0.1c0.9-1.9,2.4-4.2,6.8-4.2c5.2,0,7.1,3.4,7.1,8v13.4h-2.6V130
			c0-3.9-1.4-6.5-5-6.5c-4.7,0-6.2,4.1-6.2,7.6v11.6H90V126.8z"/>
		<path d="M122.2,124.1h-4.8v13.5c0,1.9,0.7,3.4,2.8,3.4c0.8,0,1.6-0.2,2.4-0.5l0.2,2.1c-1,0.4-2.1,0.6-3.2,0.6
			c-4.6,0-4.8-3.1-4.8-7v-12.2h-4.1v-2.2h4.1v-5l2.6-0.9v5.9h4.8V124.1z"/>
		<path d="M127.2,126.5c0-1.6,0-3.1-0.2-4.7h2.6v4h0.1c0.9-2.3,2.7-4.5,5.4-4.5c0.6,0,1.2,0.1,1.8,0.2v2.7c-0.6-0.2-1.3-0.3-1.9-0.2
			c-4.1,0-5.2,4.6-5.2,8.4v10.3h-2.6V126.5z"/>
		<path d="M157.6,137.8c0,1.6,0,3.3,0.2,4.9h-2.5V139h-0.1c-0.9,1.9-2.4,4.2-6.8,4.2c-5.2,0-7.1-3.4-7.1-8v-13.4h2.6v12.7
			c0,3.9,1.4,6.5,5,6.5c4.7,0,6.2-4.1,6.2-7.6v-11.6h2.6L157.6,137.8z"/>
		<path d="M189.8,142.8v-13.9c0-2.9-1.1-5.3-4.4-5.3c-2.8,0-5.6,2.4-5.6,7.6v11.6h-2.6v-13.9c0-2.9-1.1-5.3-4.4-5.3
			c-2.8,0-5.6,2.4-5.6,7.6v11.6h-2.6v-16c0-1.6,0-3.2-0.2-4.9h2.5v3.5h0.1c0.8-1.4,2.1-4.1,6.5-4.1c2.7-0.2,5.1,1.7,5.5,4.4h0.1
			c1.1-2.7,3.7-4.5,6.7-4.4c4.2,0,6.6,3,6.6,7v14.4L189.8,142.8z"/>
		<path d="M224.9,142.1c-1.9,0.7-4,1.1-6.1,1.1c-6.9,0-9.5-4.7-9.5-10.9s3.5-11,8.8-11c5.9,0,8.3,4.8,8.3,10.4v1.3h-14.3
			c0,4.4,2.4,8,6.9,8c2.1-0.1,4.1-0.6,5.9-1.6V142.1z M223.6,130.8c0-3.7-1.5-7.3-5.3-7.3s-6.1,3.8-6.1,7.3H223.6z"/>
		<path d="M231.8,112h2.6v30.8h-2.6V112z"/>
		<path d="M255.3,142.1c-1.9,0.7-4,1.1-6.1,1.1c-6.9,0-9.5-4.7-9.5-10.9s3.5-11,8.8-11c5.9,0,8.3,4.8,8.3,10.4v1.3h-14.3
			c0,4.4,2.4,8,6.9,8c2.1-0.1,4.1-0.6,5.9-1.6L255.3,142.1z M254,130.8c0-3.7-1.5-7.3-5.3-7.3s-6.1,3.8-6.1,7.3H254z"/>
		<path d="M262.2,112h2.6v18.4l9.4-8.6h3.3l-10.2,9.3l11.4,11.6h-3.6L264.8,132v10.7h-2.6V112z"/>
		<path d="M292.1,124.1h-4.8v13.5c0,1.9,0.7,3.4,2.8,3.4c0.8,0,1.6-0.2,2.4-0.5l0.2,2.1c-1,0.4-2.1,0.6-3.2,0.6
			c-4.6,0-4.8-3.1-4.8-7v-12.2h-4.1v-2.2h4.1v-5l2.6-0.9v5.9h4.8V124.1z"/>
		<path d="M297.2,126.5c0-1.6,0-3.1-0.2-4.7h2.6v4h0.1c0.9-2.3,2.7-4.5,5.4-4.5c0.6,0,1.2,0.1,1.8,0.2v2.7c-0.6-0.2-1.2-0.3-1.9-0.2
			c-4.1,0-5.2,4.6-5.2,8.4v10.3h-2.6L297.2,126.5z"/>
		<path d="M319.4,121.3c6.8,0,9.8,5.2,9.8,11c0,5.8-3,10.9-9.8,10.9s-9.8-5.2-9.8-10.9S312.6,121.3,319.4,121.3z M319.4,141
			c4.5,0,6.9-3.9,6.9-8.7s-2.4-8.7-6.9-8.7s-6.9,3.9-6.9,8.7S314.9,141,319.4,141L319.4,141z"/>
		<path d="M334.4,126.8c0-1.6,0-3.3-0.2-4.9h2.5v3.7h0.1c0.9-1.9,2.4-4.2,6.8-4.2c5.2,0,7.1,3.4,7.1,8v13.4h-2.6V130
			c0-3.9-1.4-6.5-5-6.5c-4.7,0-6.2,4.1-6.2,7.6v11.6h-2.6L334.4,126.8z"/>
		<path d="M360.2,117.1h-2.6v-3.4h2.6V117.1z M357.6,121.8h2.6v20.9h-2.6V121.8z"/>
		<path d="M365.5,139.7c1.7,0.8,3.6,1.3,5.5,1.3c2.5,0,4.6-1.4,4.6-3.7c0-5-10-4.2-10-10.2c0-4.1,3.4-5.7,6.8-5.7
			c1.8,0,3.5,0.4,5.2,0.9l-0.2,2.3c-1.5-0.6-3-1-4.6-1c-2.7,0-4.5,0.8-4.5,3.5c0,3.9,10.3,3.4,10.3,10.2c0,4.4-4.1,5.9-7.3,5.9
			c-2,0-4-0.3-5.9-1L365.5,139.7z"/>
		<path d="M397.1,124.6c-1.4-0.6-2.9-1-4.5-1.1c-5,0-7.9,3.7-7.9,8.7c0,4.8,2.9,8.7,7.6,8.7c1.6,0,3.2-0.3,4.7-0.9l0.2,2.4
			c-1.7,0.6-3.6,0.8-5.4,0.7c-6.7,0-10-5.1-10-10.9c0-6.4,4.1-11,10.3-11c1.7,0,3.4,0.3,5,0.8L397.1,124.6z"/>
		<path d="M402.1,112h2.6v13.4h0.1c1.2-2.5,3.8-4.1,6.5-4c5.6,0,7.1,3.7,7.1,8.9v12.5h-2.6v-12.5c0-3.6-0.7-6.7-5-6.7
			c-4.6,0-6.2,4.3-6.2,8v11.2h-2.6L402.1,112z"/>
		<path d="M439.4,142.1c-1.9,0.7-4,1.1-6.1,1.1c-6.9,0-9.5-4.7-9.5-10.9s3.5-11,8.8-11c5.9,0,8.3,4.8,8.3,10.4v1.3h-14.3
			c0,4.4,2.4,8,6.9,8c2-0.1,4.1-0.6,5.9-1.6V142.1z M438.1,130.8c0-3.7-1.5-7.3-5.3-7.3s-6.1,3.8-6.1,7.3H438.1z"/>
		<path d="M458.3,114.1h4.4l10.5,25.2l10.5-25.2h4.1v28.6h-2.8V117h-0.1l-10.4,25.8H472L461.2,117h-0.1v25.8h-2.8L458.3,114.1z"/>
		<path d="M508.9,142.1c-1.9,0.7-4,1.1-6.1,1.1c-6.9,0-9.5-4.7-9.5-10.9s3.5-11,8.8-11c5.9,0,8.3,4.8,8.3,10.4v1.3h-14.3
			c0,4.4,2.4,8,6.9,8c2-0.1,4.1-0.6,5.9-1.6V142.1z M507.7,130.8c0-3.7-1.5-7.3-5.3-7.3s-6.1,3.8-6.1,7.3H507.7z"/>
		<path d="M532.4,142.8h-2.6v-3.3h-0.1c-1.2,2.5-3.8,4-6.5,3.8c-5.7,0-8.6-4.8-8.6-10.9c0-6.4,2.5-11,8.6-11c2.8-0.1,5.3,1.5,6.5,4
			h0.1V112h2.6V142.8z M523.6,141c4.6,0,6.2-4.9,6.2-8.7s-1.6-8.7-6.2-8.7c-4.9,0-6.2,4.7-6.2,8.7S518.7,141,523.6,141z"/>
		<path d="M541.6,117.1H539v-3.4h2.6L541.6,117.1z M539,121.8h2.6v20.9H539V121.8z"/>
		<path d="M562.6,142.1c-1.9,0.7-4,1.1-6.1,1.1c-6.9,0-9.5-4.7-9.5-10.9s3.5-11,8.8-11c5.9,0,8.3,4.8,8.3,10.4v1.3h-14.3
			c0,4.4,2.4,8,6.9,8c2-0.1,4.1-0.6,5.9-1.6V142.1z M561.3,130.8c0-3.7-1.5-7.3-5.3-7.3s-6.2,3.8-6.2,7.3H561.3z"/>
		<path d="M569.5,126.8c0-1.6,0-3.3-0.2-4.9h2.5v3.7h0.1c0.9-1.9,2.4-4.2,6.8-4.2c5.2,0,7.1,3.4,7.1,8v13.4h-2.6V130
			c0-3.9-1.4-6.5-5-6.5c-4.7,0-6.2,4.1-6.2,7.6v11.6h-2.6L569.5,126.8z"/>
		<path d="M0.4,195.1c1.9,1.2,4.1,1.8,6.3,1.7c3.5,0,6.4-1.8,6.4-5.9c0-5.6-13.1-6.3-13.1-13.8c0-4.6,4-7.5,9.1-7.5
			c1.9,0,3.8,0.3,5.6,0.9l-0.4,2.6c-1.6-0.8-3.4-1.1-5.2-1.1c-2.9,0-6.2,1.2-6.2,4.9c0,5.7,13.1,5.8,13.1,14.1c0,5.8-5,8.1-9.4,8.1
			c-2.2,0-4.4-0.4-6.5-1.2L0.4,195.1z"/>
		<path d="M30.8,180.1H26v13.5c0,1.9,0.7,3.4,2.8,3.4c0.8,0,1.6-0.2,2.4-0.5l0.2,2.1c-1,0.4-2.1,0.6-3.2,0.6c-4.6,0-4.8-3.1-4.8-7
			v-12.2h-4.1v-2.2h4.1v-5l2.6-0.9v5.9h4.8L30.8,180.1z"/>
		<path d="M47.8,195.4L47.8,195.4c-1.2,2.5-4.1,3.9-6.7,3.9c-5.9,0-6.9-4-6.9-5.9c0-7,7.5-7.3,12.9-7.3h0.5v-1.1
			c0-3.6-1.3-5.4-4.8-5.4c-2.2,0-4.3,0.6-6.2,1.7v-2.5c1.9-0.9,4-1.4,6.2-1.4c5.2,0,7.3,2.3,7.3,7.8v9.2c0,1.5,0,2.9,0.2,4.4h-2.5
			V195.4z M47.6,188.2h-0.7c-4.5,0-9.8,0.4-9.8,5c0,2.7,2,3.8,4.3,3.8c6.1,0,6.2-5.3,6.2-7.6L47.6,188.2z"/>
		<path d="M73.1,193.8c0,1.6,0,3.3,0.2,4.9h-2.5V195h-0.1c-0.9,1.9-2.4,4.2-6.8,4.2c-5.2,0-7.1-3.4-7.1-8v-13.4h2.6v12.7
			c0,3.9,1.4,6.5,5,6.5c4.7,0,6.2-4.1,6.2-7.6v-11.6h2.6L73.1,193.8z"/>
		<path d="M81.7,180.1h-4.2v-2.2h4.2v-1.5c0-4.4,0.2-8.8,5.5-8.8c0.8,0,1.7,0.1,2.4,0.4l-0.2,2.2c-0.6-0.3-1.3-0.5-2-0.4
			c-3.5,0-3.2,3.8-3.2,6.3v1.8H89v2.2h-4.7v18.7h-2.6V180.1z"/>
		<path d="M95.8,180.1h-4.2v-2.2h4.2v-1.5c0-4.4,0.2-8.8,5.5-8.8c0.8,0,1.7,0.1,2.4,0.4l-0.2,2.2c-0.6-0.3-1.3-0.4-2-0.4
			c-3.5,0-3.2,3.8-3.2,6.3v1.8h4.7v2.2h-4.8v18.7h-2.6V180.1z"/>
		<path d="M120.1,195.4L120.1,195.4c-1.4,2.4-4,3.9-6.7,3.9c-5.9,0-6.9-4-6.9-5.9c0-7,7.5-7.3,12.9-7.3h0.5v-1.1
			c0-3.6-1.3-5.4-4.8-5.4c-2.2,0-4.3,0.6-6.2,1.7v-2.5c1.9-0.9,4-1.4,6.2-1.4c5.2,0,7.3,2.3,7.3,7.8v9.2c0,1.5,0,2.9,0.2,4.4h-2.5
			L120.1,195.4z M119.8,188.2h-0.7c-4.5,0-9.8,0.4-9.8,5c0,2.7,2,3.8,4.3,3.8c6.1,0,6.2-5.3,6.2-7.6V188.2z"/>
		<path d="M142.6,180.6c-1.4-0.6-2.9-1-4.5-1.1c-5,0-7.9,3.6-7.9,8.7c0,4.8,2.9,8.7,7.6,8.7c1.6,0,3.2-0.3,4.7-0.9l0.2,2.4
			c-1.7,0.6-3.6,0.8-5.4,0.7c-6.7,0-10-5.1-10-10.9c0-6.4,4.1-11,10.3-11c1.7,0,3.4,0.3,5,0.8L142.6,180.6z"/>
		<path d="M147.6,168h2.6v13.4h0.1c1.2-2.5,3.8-4.1,6.5-4c5.6,0,7.1,3.7,7.1,8.9v12.5h-2.6v-12.5c0-3.6-0.7-6.7-5-6.7
			c-4.6,0-6.2,4.4-6.2,8v11.2h-2.5V168z"/>
		<path d="M184.8,198.1c-1.9,0.7-4,1.1-6.1,1.1c-6.9,0-9.5-4.7-9.5-10.9s3.5-11,8.8-11c5.9,0,8.3,4.8,8.3,10.4v1.3h-14.3
			c0,4.4,2.4,8,6.9,8c2.1-0.1,4.1-0.6,5.9-1.6V198.1z M183.6,186.8c0-3.6-1.5-7.3-5.3-7.3s-6.1,3.8-6.1,7.3H183.6z"/>
		<path d="M191.7,182.5c0-1.6,0-3.1-0.2-4.7h2.6v4h0.1c0.9-2.3,2.7-4.5,5.4-4.5c0.6,0,1.2,0.1,1.8,0.2v2.7c-0.6-0.2-1.3-0.3-1.9-0.2
			c-4.1,0-5.2,4.6-5.2,8.4v10.3h-2.6V182.5z"/>
		<path d="M204.2,195.7c1.7,0.9,3.6,1.3,5.4,1.3c2.5,0,4.6-1.4,4.6-3.7c0-5-10-4.2-10-10.2c0-4.1,3.4-5.7,6.8-5.7
			c1.8,0,3.5,0.4,5.2,0.9l-0.2,2.3c-1.5-0.6-3-1-4.6-1c-2.7,0-4.5,0.8-4.5,3.5c0,3.9,10.3,3.4,10.3,10.2c0,4.4-4.1,5.9-7.3,5.9
			c-2,0-4-0.3-5.9-1L204.2,195.7z"/>
		<path d="M231.2,180.1h-4.8v13.5c0,1.9,0.7,3.4,2.8,3.4c0.8,0,1.6-0.2,2.4-0.5l0.2,2.1c-1,0.4-2.1,0.6-3.2,0.6
			c-4.6,0-4.8-3.1-4.8-7v-12.2h-4.1v-2.2h4.1v-5l2.6-0.9v5.9h4.8L231.2,180.1z"/>
		<path d="M236.2,182.5c0-1.6,0-3.1-0.2-4.7h2.6v4h0.1c0.9-2.3,2.7-4.5,5.4-4.5c0.6,0,1.2,0.1,1.8,0.2v2.7c-0.6-0.2-1.2-0.3-1.9-0.2
			c-4.1,0-5.2,4.6-5.2,8.4v10.3h-2.6V182.5z"/>
		<path d="M262.3,195.4L262.3,195.4c-1.4,2.4-4,3.9-6.7,3.9c-5.9,0-6.9-4-6.9-5.9c0-7,7.5-7.3,12.9-7.3h0.5v-1.1
			c0-3.6-1.3-5.4-4.8-5.4c-2.2,0-4.3,0.6-6.1,1.7v-2.5c1.9-0.9,4-1.4,6.1-1.4c5.2,0,7.3,2.3,7.3,7.8v9.2c0,1.5,0,2.9,0.2,4.4h-2.5
			L262.3,195.4z M262,188.2h-0.7c-4.5,0-9.8,0.4-9.8,5c0,2.7,2,3.8,4.4,3.8c6.1,0,6.2-5.3,6.2-7.6V188.2z"/>
		<path d="M269.6,195.7c1.7,0.8,3.5,1.3,5.4,1.3c2.5,0,4.6-1.4,4.6-3.7c0-5-10-4.2-10-10.2c0-4.1,3.4-5.7,6.8-5.7
			c1.8,0,3.5,0.4,5.2,0.9l-0.2,2.3c-1.5-0.6-3-1-4.6-1c-2.7,0-4.5,0.8-4.5,3.5c0,3.9,10.3,3.4,10.3,10.2c0,4.4-4.1,5.9-7.3,5.9
			c-2,0-4-0.3-5.9-1L269.6,195.7z"/>
		<path d="M285.9,195.7c1.7,0.8,3.6,1.3,5.5,1.3c2.5,0,4.6-1.4,4.6-3.7c0-5-10-4.2-10-10.2c0-4.1,3.4-5.7,6.8-5.7
			c1.8,0,3.5,0.4,5.2,0.9l-0.2,2.3c-1.5-0.6-3-1-4.6-1c-2.7,0-4.5,0.8-4.5,3.5c0,3.9,10.3,3.4,10.3,10.2c0,4.4-4.1,5.9-7.3,5.9
			c-2,0-4-0.3-5.9-1L285.9,195.7z"/>
		<path d="M317.9,198.1c-1.9,0.7-4,1.1-6.1,1.1c-6.9,0-9.5-4.7-9.5-10.9s3.5-11,8.8-11c5.9,0,8.3,4.8,8.3,10.4v1.3h-14.3
			c0,4.4,2.4,8,6.9,8c2-0.1,4.1-0.6,5.9-1.6V198.1z M316.6,186.8c0-3.6-1.5-7.3-5.3-7.3s-6.1,3.8-6.1,7.3H316.6z"/>
		<path d="M335.6,185.5c0-8.7,3.2-15.6,12.9-15.6c1.6,0,3.1,0.2,4.6,0.6l-0.2,2.7c-1.5-0.6-3.1-0.9-4.7-0.9
			c-7.4-0.1-9.7,6.1-9.7,11.9h0.1c1.5-2.3,4-3.6,6.7-3.5c3.8,0,8.9,1.8,8.9,8.9c0,5.6-3.5,9.4-9.3,9.4
			C337.2,199,335.6,192.2,335.6,185.5z M338.7,189.5c0,3.5,1.9,7.1,6.1,7.1s6.4-2.9,6.4-6.8c0-4.2-2.1-6.7-6.1-6.7
			S338.7,185.7,338.7,189.5L338.7,189.5z"/>
		<path d="M375.4,172.6h-11.9l-0.2,9.2c1.4-0.5,2.9-0.7,4.3-0.6c5.5,0,9,3.1,9,8.4c0,6.3-4.3,9.5-10.4,9.5c-2.1,0-4.2-0.3-6.1-1
			v-2.9c1.9,1,4,1.5,6.1,1.5c3.7,0,7.6-2,7.6-6.5s-2.3-6.5-7.2-6.5c-2.1,0-4.2,0.3-6.2,0.9l0.3-14.4h14.6L375.4,172.6z"/>
		<path d="M384.4,195.3h3.5l-3.2,8.9H382L384.4,195.3z"/>
		<path d="M409.5,182.7h0.7c3.9,0,9.7-0.4,9.7-5.7c0-3.2-3.5-4.6-6.6-4.6c-2.2,0-4.4,0.5-6.4,1.5l-0.2-2.7c2.2-0.8,4.6-1.3,6.9-1.3
			c4.7,0,9.1,2,9.1,7.1c0,3.5-2.5,6-5.9,6.9v0.1c3.8,0.2,5.9,3.1,5.9,6.9c0,5.2-4.6,8.2-10.3,8.2c-2.4,0.1-4.8-0.3-7-1.1l0.3-2.7
			c2.2,1,4.5,1.4,6.9,1.4c3.5,0,7.3-1.7,7.3-6c0-4.9-4.8-5.4-7.8-5.4h-2.6L409.5,182.7z"/>
		<path d="M447.4,184.4c0,6-1.2,14.6-9.4,14.6s-9.4-8.6-9.4-14.6c0-6.7,1.8-14.6,9.4-14.6S447.4,177.8,447.4,184.4z M431.4,184.4
			c0,4.8,0.6,12.1,6.6,12.1s6.6-7.4,6.6-12.1s-0.6-12.1-6.6-12.1S431.4,179.7,431.4,184.4z"/>
		<path d="M470.6,184.4c0,6-1.2,14.6-9.4,14.6s-9.4-8.6-9.4-14.6c0-6.7,1.8-14.6,9.4-14.6S470.6,177.8,470.6,184.4z M454.6,184.4
			c0,4.8,0.6,12.1,6.6,12.1s6.6-7.4,6.6-12.1s-0.6-12.1-6.6-12.1S454.6,179.7,454.6,184.4z"/>
		<path d="M479.2,182.7h0.7c3.9,0,9.7-0.4,9.7-5.7c0-3.2-3.5-4.6-6.6-4.6c-2.2,0-4.4,0.5-6.4,1.5l-0.2-2.7c2.2-0.8,4.6-1.3,6.9-1.3
			c4.7,0,9.1,2,9.1,7.1c0,3.5-2.5,6-6,6.9v0.1c3.8,0.2,6,3.1,6,6.9c0,5.2-4.6,8.2-10.3,8.2c-2.4,0.1-4.8-0.3-7.1-1.1l0.3-2.7
			c2.2,1,4.5,1.4,6.9,1.4c3.4,0,7.3-1.7,7.3-6c0-4.9-4.8-5.4-7.8-5.4h-2.6L479.2,182.7z"/>
		<path d="M511.3,170.1h6.8c4.7,0,9.1,1.6,9.1,7.1c0,3.6-1.7,5.8-5.2,6.5v0.1c3.6,0.6,6.1,3,6.1,6.8c0,6.2-5.1,8.2-11,8.2h-5.7
			L511.3,170.1z M514.1,196.3h3c3.8,0,8.1-1,8.1-5.6c0-5.1-4.4-5.6-8.6-5.6h-2.5L514.1,196.3z M514.2,182.6h3.2c3,0,7-0.8,7-5.3
			c0-4.1-3.8-4.7-6.2-4.7h-3.9L514.2,182.6z"/>
		<path d="M548.5,198.1c-1.9,0.7-4,1.1-6.1,1.1c-6.9,0-9.5-4.7-9.5-10.9s3.5-11,8.8-11c5.9,0,8.3,4.8,8.3,10.4v1.3h-14.3
			c0,4.4,2.4,8,6.9,8c2-0.1,4.1-0.6,5.9-1.6V198.1z M547.2,186.8c0-3.6-1.5-7.3-5.3-7.3s-6.2,3.8-6.2,7.3H547.2z"/>
		<path d="M555.4,182.5c0-1.6,0-3.1-0.2-4.7h2.6v4h0.1c1-2.3,2.7-4.5,5.4-4.5c0.6,0,1.2,0.1,1.8,0.2v2.7c-0.6-0.2-1.3-0.3-1.9-0.2
			c-4.1,0-5.2,4.6-5.2,8.4v10.3h-2.6V182.5z"/>
		<path d="M569.5,182.8c0-1.6,0-3.3-0.2-4.9h2.5v3.7h0.1c0.9-1.9,2.4-4.2,6.8-4.2c5.2,0,7.1,3.4,7.1,8v13.4h-2.6V186
			c0-3.9-1.4-6.5-5-6.5c-4.7,0-6.2,4.1-6.2,7.6v11.6h-2.6L569.5,182.8z"/>
	</g>
</g>
</svg>
