<?xml version="1.0" encoding="utf-8"?>
<!-- Generator: Adobe Illustrator 23.0.6, SVG Export Plug-In . SVG Version: 6.00 Build 0)  -->
<svg version="1.1" id="Ebene_1" xmlns="http://www.w3.org/2000/svg" xmlns:xlink="http://www.w3.org/1999/xlink" x="0px" y="0px"
	 viewBox="0 0 469.5 191" style="enable-background:new 0 0 469.5 191;" xml:space="preserve">
<style type="text/css">
	.st0{fill:#1D1D1B;}
</style>
<title>logo-zem</title>
<g>
	<g id="Ebene_1-2">
		<polygon class="st0" points="108.5,18.4 35.1,114 35.1,114.5 111.2,114.5 111.2,134.8 1.8,134.8 1.8,119.6 76.4,23.8 76.4,23.5 
			5.6,23.5 5.6,3.3 108.5,3.3 		"/>
		<path class="st0" d="M148.2,57.3h70.7c0-23.5-10.5-37-32.9-37C165.7,20.3,150.6,34,148.2,57.3z M186,0c36.5,0,54.8,21.9,54.8,65.1
			v11.3h-92.6c2.2,27.6,16.5,41.1,43.7,41.1c23.5,0,35.4-9.7,40-13.8l8.1,16.8c-5.9,5.7-19.4,17.6-49.1,17.6
			c-40,0-65.3-21.9-65.3-70.8C125.6,23.5,152.6,0,186,0L186,0z"/>
		<path class="st0" d="M468.4,134.8H446V58.9c0-27.5-11.3-38.6-32.4-38.6c-16.7,0-28.3,8.9-35.4,15.9c1.1,6,1.7,12,1.6,18.1v80.5
			h-22.1V58.9c0-27.5-11.9-38.6-32.1-38.6c-16.7,0-28.3,10.3-34.6,17v97.5h-22.4V3.3h21.6v14.8h0.5c5.7-7,19.4-18.1,42.1-18.1
			c18.1,0,31.9,6.5,39.7,20.8C379.3,13,394.4,0,420,0c30.2,0,48.3,16.2,48.3,54.3L468.4,134.8L468.4,134.8z"/>
		<polygon class="st0" points="36.3,191 32,191 21.9,163 21.8,163 11.7,191 7.4,191 0,156.9 4.2,156.9 9.8,184.5 9.9,184.5 
			19.7,156.9 24,156.9 33.8,184.5 33.8,184.5 39.5,156.9 43.7,156.9 		"/>
		<polygon class="st0" points="55.2,191 51.1,191 51.1,156.9 55.2,156.9 		"/>
		<path class="st0" d="M75.2,160.6h-6.1v13.7h6c7.2,0,10.5-2.7,10.5-7S82.3,160.7,75.2,160.6L75.2,160.6z M86.1,191l-8.6-13.1
			c-0.8,0.1-1.6,0.1-2.4,0.1h-6v13H65v-34.1h10.2c9.8,0,14.5,3.4,14.5,10.2c0,4.9-2.7,8.5-8,10l9.3,13.8L86.1,191z"/>
		<polygon class="st0" points="116.5,187.3 134.9,187.3 134.9,191 112.4,191 112.4,156.9 116.5,156.9 		"/>
		<polygon class="st0" points="162.6,160.6 144.9,160.6 144.9,171.9 161.1,171.9 161.1,175.6 144.9,175.6 144.9,187.3 163.1,187.3 
			163.1,191 140.8,191 140.8,156.9 162.6,156.9 		"/>
		<path class="st0" d="M182.1,175.6h-7.8v11.7h7.8c6.8,0,9.7-2,9.7-5.7S188.7,175.6,182.1,175.6L182.1,175.6z M181.7,160.6h-7.4
			v11.3h7.3c6.5,0,9.4-2.4,9.4-5.9C191,162.2,188.2,160.6,181.7,160.6L181.7,160.6z M182.3,191h-12.1v-34.1H182
			c9.1,0,13.1,3.3,13.1,8.6c0,4.9-3.3,7.3-7.4,8.1v0.1c4.6,0.6,8.2,3.5,8.2,8.2C196,187.2,191.6,191,182.3,191L182.3,191z"/>
		<polygon class="st0" points="225.6,160.6 207.8,160.6 207.8,171.9 224,171.9 224,175.6 207.8,175.6 207.8,187.3 226.1,187.3 
			226.1,191 203.7,191 203.7,156.9 225.6,156.9 		"/>
		<polygon class="st0" points="261.1,191 257.3,191 237.3,164.2 237.2,164.2 237.2,191 233.1,191 233.1,156.9 237,156.9 
			256.9,183.8 257,183.8 257,156.9 261.1,156.9 		"/>
		<polygon class="st0" points="321.1,191 317,191 317,165 316.9,165 304.9,191 301.1,191 289.1,165 289,165 289,191 284.9,191 
			284.9,156.9 289.7,156.9 302.9,185.3 303.1,185.3 316.3,156.9 321.1,156.9 		"/>
		<polygon class="st0" points="352.2,160.6 334.4,160.6 334.4,171.9 350.6,171.9 350.6,175.6 334.4,175.6 334.4,187.3 352.7,187.3 
			352.7,191 330.3,191 330.3,156.9 352.2,156.9 		"/>
		<path class="st0" d="M369.5,160.6h-5.7v26.7h5.7c10.6,0,16.6-4.3,16.6-13.6C386.1,164.7,380.2,160.7,369.5,160.6L369.5,160.6z
			 M369.5,191h-9.8v-34.1h9.8c13,0,20.8,5,20.8,16.8S382.7,191,369.5,191L369.5,191z"/>
		<polygon class="st0" points="402.2,191 398.1,191 398.1,156.9 402.2,156.9 		"/>
		<polygon class="st0" points="433.9,160.6 416.1,160.6 416.1,171.9 432.3,171.9 432.3,175.6 416.1,175.6 416.1,187.3 434.4,187.3 
			434.4,191 412,191 412,156.9 433.9,156.9 		"/>
		<polygon class="st0" points="469.5,191 465.6,191 445.7,164.2 445.6,164.2 445.6,191 441.5,191 441.5,156.9 445.3,156.9 
			465.3,183.8 465.4,183.8 465.4,156.9 469.5,156.9 		"/>
	</g>
</g>
</svg>
